Antonio-Light-FF.ufo
<glyph name="exclam" format="1">
  <advance width="501"/>
  <unicode hex="0021"/>
  <outline>
    <contour>
      <point x="156" y="0" type="line"/>
      <point x="342" y="0" type="line"/>
      <point x="342" y="202" type="line"/>
      <point x="156" y="202" type="line"/>
    </contour>
    <contour>
      <point x="220" y="368" type="line"/>
      <point x="280" y="368" type="line"/>
      <point x="345" y="1760" type="line"/>
      <point x="157" y="1760" type="line"/>
    </contour>
  </outline>
</glyph>
<glyph name="quotedbl" format="1">
  <advance width="771"/>
  <unicode hex="0022"/>
  <outline>
    <contour>
      <point x="196" y="1125" type="line"/>
      <point x="260" y="1125" type="line"/>
      <point x="352" y="1760" type="line"/>
      <point x="196" y="1760" type="line"/>
    </contour>
    <contour>
      <point x="487" y="1125" type="line"/>
      <point x="551" y="1125" type="line"/>
      <point x="644" y="1760" type="line"/>
      <point x="487" y="1760" type="line"/>
    </contour>
  </outline>
</glyph>
<glyph name="numbersign" format="1">
  <advance width="829"/>
  <unicode hex="0023"/>
  <outline>
    <contour>
      <point x="22" y="0" type="line"/>
      <point x="133" y="0" type="line"/>
      <point x="264" y="670" type="line"/>
      <point x="480" y="670" type="line"/>
      <point x="350" y="0" type="line"/>
      <point x="452" y="0" type="line"/>
      <point x="585" y="670" type="line"/>
      <point x="798" y="670" type="line"/>
      <point x="798" y="767" type="line"/>
      <point x="604" y="767" type="line"/>
      <point x="658" y="1041" type="line"/>
      <point x="841" y="1041" type="line"/>
      <point x="841" y="1138" type="line"/>
      <point x="678" y="1138" type="line"/>
      <point x="801" y="1760" type="line"/>
      <point x="698" y="1760" type="line"/>
      <point x="573" y="1138" type="line"/>
      <point x="357" y="1138" type="line"/>
      <point x="482" y="1760" type="line"/>
      <point x="370" y="1760" type="line"/>
      <point x="247" y="1138" type="line"/>
      <point x="31" y="1138" type="line"/>
      <point x="31" y="1041" type="line"/>
      <point x="228" y="1041" type="line"/>
      <point x="174" y="767" type="line"/>
      <point x="-12" y="767" type="line"/>
      <point x="-12" y="670" type="line"/>
      <point x="154" y="670" type="line"/>
    </contour>
    <contour>
      <point x="282" y="765" type="line"/>
      <point x="336" y="1035" type="line"/>
      <point x="555" y="1035" type="line"/>
      <point x="502" y="765" type="line"/>
    </contour>
  </outline>
</glyph>
<glyph name="dollar" format="1">
  <advance width="830"/>
  <unicode hex="0024"/>
  <outline>
    <contour>
      <point x="396" y="-221" type="line"/>
      <point x="503" y="-221" type="line"/>
      <point x="503" y="67" type="line"/>
      <point x="396" y="67" type="line"/>
    </contour>
    <contour>
      <point x="354" y="1490" type="line"/>
      <point x="461" y="1490" type="line"/>
      <point x="461" y="1782" type="line"/>
      <point x="354" y="1782" type="line"/>
    </contour>
    <component base="s" xOffset="48" yOffset="48"/>
  </outline>
</glyph>
<glyph name="percent" format="1">
  <advance width="2078"/>
  <unicode hex="0025"/>
  <outline>
    <contour>
      <point x="429" y="718" type="curve" smooth="yes"/>
      <point x="323" y="718"/>
      <point x="292" y="765"/>
      <point x="292" y="936" type="curve" smooth="yes"/>
      <point x="292" y="1436" type="line" smooth="yes"/>
      <point x="292" y="1601"/>
      <point x="324" y="1646"/>
      <point x="429" y="1646" type="curve" smooth="yes"/>
      <point x="535" y="1646"/>
      <point x="566" y="1601"/>
      <point x="566" y="1436" type="curve" smooth="yes"/>
      <point x="566" y="936" type="line" smooth="yes"/>
      <point x="566" y="765"/>
      <point x="536" y="718"/>
    </contour>
    <contour>
      <point x="429" y="581" type="curve" smooth="yes"/>
      <point x="653" y="581"/>
      <point x="704" y="672"/>
      <point x="704" y="1012" type="curve" smooth="yes"/>
      <point x="704" y="1364" type="line" smooth="yes"/>
      <point x="704" y="1691"/>
      <point x="652" y="1782"/>
      <point x="429" y="1782" type="curve" smooth="yes"/>
      <point x="207" y="1782"/>
      <point x="155" y="1691"/>
      <point x="155" y="1364" type="curve" smooth="yes"/>
      <point x="155" y="1012" type="line" smooth="yes"/>
      <point x="155" y="672"/>
      <point x="206" y="581"/>
    </contour>
    <contour>
      <point x="1649" y="117" type="curve" smooth="yes"/>
      <point x="1543" y="117"/>
      <point x="1512" y="164"/>
      <point x="1512" y="335" type="curve" smooth="yes"/>
      <point x="1512" y="835" type="line" smooth="yes"/>
      <point x="1512" y="1000"/>
      <point x="1543" y="1045"/>
      <point x="1649" y="1045" type="curve" smooth="yes"/>
      <point x="1754" y="1045"/>
      <point x="1786" y="1000"/>
      <point x="1786" y="835" type="curve" smooth="yes"/>
      <point x="1786" y="335" type="line" smooth="yes"/>
      <point x="1786" y="164"/>
      <point x="1755" y="117"/>
    </contour>
    <contour>
      <point x="1649" y="-20" type="curve" smooth="yes"/>
      <point x="1872" y="-20"/>
      <point x="1923" y="71"/>
      <point x="1923" y="411" type="curve" smooth="yes"/>
      <point x="1923" y="763" type="line" smooth="yes"/>
      <point x="1923" y="1090"/>
      <point x="1871" y="1181"/>
      <point x="1649" y="1181" type="curve" smooth="yes"/>
      <point x="1426" y="1181"/>
      <point x="1374" y="1090"/>
      <point x="1374" y="763" type="curve" smooth="yes"/>
      <point x="1374" y="411" type="line" smooth="yes"/>
      <point x="1374" y="71"/>
      <point x="1425" y="-20"/>
    </contour>
    <contour>
      <point x="607" y="0" type="line"/>
      <point x="755" y="0" type="line"/>
      <point x="1477" y="1760" type="line"/>
      <point x="1337" y="1760" type="line"/>
    </contour>
  </outline>
</glyph>
<glyph name="ampersand" format="1">
  <advance width="830"/>
  <unicode hex="0026"/>
  <outline>
    <contour>
      <point x="338" y="-20" type="curve" smooth="yes"/>
      <point x="502" y="-20"/>
      <point x="571" y="110"/>
      <point x="607" y="253" type="curve"/>
      <point x="710" y="0" type="line"/>
      <point x="837" y="0" type="line"/>
      <point x="682" y="368" type="line"/>
      <point x="719" y="473"/>
      <point x="758" y="585"/>
      <point x="832" y="690" type="curve"/>
      <point x="771" y="797" type="line"/>
      <point x="702" y="704"/>
      <point x="659" y="608"/>
      <point x="620" y="516" type="curve"/>
      <point x="448" y="925" type="line"/>
      <point x="558" y="1080"/>
      <point x="662" y="1232"/>
      <point x="662" y="1434" type="curve" smooth="yes"/>
      <point x="662" y="1654"/>
      <point x="624" y="1783"/>
      <point x="424" y="1783" type="curve" smooth="yes"/>
      <point x="258" y="1783"/>
      <point x="166" y="1670"/>
      <point x="166" y="1443" type="curve" smooth="yes"/>
      <point x="166" y="1350"/>
      <point x="228" y="1172"/>
      <point x="311" y="959" type="curve"/>
      <point x="180" y="772"/>
      <point x="72" y="612"/>
      <point x="72" y="333" type="curve" smooth="yes"/>
      <point x="72" y="76"/>
      <point x="188" y="-20"/>
    </contour>
    <contour>
      <point x="354" y="105" type="curve" smooth="yes"/>
      <point x="245" y="105"/>
      <point x="200" y="204"/>
      <point x="200" y="334" type="curve" smooth="yes"/>
      <point x="200" y="493"/>
      <point x="267" y="700"/>
      <point x="365" y="826" type="curve"/>
      <point x="552" y="376" type="line"/>
      <point x="493" y="220"/>
      <point x="456" y="105"/>
    </contour>
    <contour>
      <point x="399" y="1057" type="curve"/>
      <point x="341" y="1222"/>
      <point x="295" y="1365"/>
      <point x="295" y="1445" type="curve" smooth="yes"/>
      <point x="295" y="1519"/>
      <point x="287" y="1667"/>
      <point x="425" y="1667" type="curve" smooth="yes"/>
      <point x="525" y="1667"/>
      <point x="539" y="1594"/>
      <point x="539" y="1456" type="curve" smooth="yes"/>
      <point x="539" y="1291"/>
      <point x="477" y="1168"/>
    </contour>
  </outline>
</glyph>
<glyph name="parenleft" format="1">
  <advance width="546"/>
  <unicode hex="0028"/>
  <outline>
    <contour>
      <point x="448" y="-117" type="curve"/>
      <point x="448" y="-4" type="line"/>
      <point x="328" y="-4"/>
      <point x="309" y="-12"/>
      <point x="309" y="291" type="curve" smooth="yes"/>
      <point x="309" y="1374" type="line" smooth="yes"/>
      <point x="309" y="1677"/>
      <point x="328" y="1669"/>
      <point x="448" y="1669" type="curve"/>
      <point x="448" y="1783" type="line"/>
      <point x="211" y="1783"/>
      <point x="160" y="1733"/>
      <point x="160" y="1370" type="curve" smooth="yes"/>
      <point x="160" y="295" type="line" smooth="yes"/>
      <point x="160" y="-68"/>
      <point x="211" y="-117"/>
    </contour>
  </outline>
</glyph>
<glyph name="parenright" format="1">
  <advance width="546"/>
  <unicode hex="0029"/>
  <outline>
    <contour>
      <point x="98" y="-119" type="line"/>
      <point x="335" y="-119"/>
      <point x="386" y="-70"/>
      <point x="386" y="293" type="curve" smooth="yes"/>
      <point x="386" y="1370" type="line" smooth="yes"/>
      <point x="386" y="1733"/>
      <point x="335" y="1783"/>
      <point x="98" y="1783" type="curve"/>
      <point x="98" y="1669" type="line"/>
      <point x="218" y="1669"/>
      <point x="237" y="1677"/>
      <point x="237" y="1374" type="curve" smooth="yes"/>
      <point x="237" y="289" type="line" smooth="yes"/>
      <point x="237" y="-14"/>
      <point x="218" y="-6"/>
      <point x="98" y="-6" type="curve"/>
    </contour>
  </outline>
</glyph>
<glyph name="asterisk" format="1">
  <advance width="960"/>
  <unicode hex="002A"/>
  <outline>
    <contour>
      <point x="414" y="1086" type="line"/>
      <point x="547" y="1086" type="line"/>
      <point x="527" y="1358" type="line"/>
      <point x="751" y="1181" type="line"/>
      <point x="819" y="1298" type="line"/>
      <point x="569" y="1438" type="line"/>
      <point x="819" y="1570" type="line"/>
      <point x="751" y="1686" type="line"/>
      <point x="527" y="1514" type="line"/>
      <point x="547" y="1782" type="line"/>
      <point x="414" y="1782" type="line"/>
      <point x="438" y="1513" type="line"/>
      <point x="209" y="1676" type="line"/>
      <point x="141" y="1560" type="line"/>
      <point x="391" y="1438" type="line"/>
      <point x="149" y="1308" type="line"/>
      <point x="216" y="1190" type="line"/>
      <point x="438" y="1362" type="line"/>
    </contour>
  </outline>
</glyph>
<glyph name="hyphen" format="1">
  <advance width="696"/>
  <unicode hex="002D"/>
  <outline>
    <contour>
      <point x="109" y="842" type="line"/>
      <point x="587" y="842" type="line"/>
      <point x="587" y="958" type="line"/>
      <point x="109" y="958" type="line"/>
    </contour>
  </outline>
</glyph>
<glyph name="slash" format="1">
  <advance width="743"/>
  <unicode hex="002F"/>
  <outline>
    <contour>
      <point x="88" y="0" type="line"/>
      <point x="222" y="0" type="line"/>
      <point x="673" y="1783" type="line"/>
      <point x="538" y="1783" type="line"/>
    </contour>
  </outline>
</glyph>
<glyph name="zero" format="1">
  <advance width="831"/>
  <unicode hex="0030"/>
  <outline>
    <contour>
      <point x="414" y="102" type="curve" smooth="yes"/>
      <point x="301" y="102"/>
      <point x="284" y="212"/>
      <point x="284" y="470" type="curve" smooth="yes"/>
      <point x="284" y="1328" type="line" smooth="yes"/>
      <point x="284" y="1558"/>
      <point x="301" y="1657"/>
      <point x="414" y="1657" type="curve" smooth="yes"/>
      <point x="534" y="1657"/>
      <point x="546" y="1558"/>
      <point x="546" y="1327" type="curve" smooth="yes"/>
      <point x="546" y="470" type="line" smooth="yes"/>
      <point x="546" y="212"/>
      <point x="534" y="102"/>
    </contour>
    <contour>
      <point x="417" y="-21" type="curve" smooth="yes"/>
      <point x="639" y="-21"/>
      <point x="695" y="128"/>
      <point x="695" y="475" type="curve" smooth="yes"/>
      <point x="695" y="1316" type="line" smooth="yes"/>
      <point x="695" y="1642"/>
      <point x="639" y="1781"/>
      <point x="417" y="1781" type="curve" smooth="yes"/>
      <point x="199" y="1781"/>
      <point x="136" y="1642"/>
      <point x="136" y="1316" type="curve" smooth="yes"/>
      <point x="136" y="475" type="line" smooth="yes"/>
      <point x="136" y="128"/>
      <point x="199" y="-21"/>
    </contour>
  </outline>
</glyph>
<glyph name="one" format="1">
  <advance width="830"/>
  <unicode hex="0031"/>
  <outline>
    <contour>
      <point x="409" y="0" type="line"/>
      <point x="558" y="0" type="line"/>
      <point x="558" y="1760" type="line"/>
      <point x="469" y="1760" type="line"/>
      <point x="413" y="1628"/>
      <point x="257" y="1536"/>
      <point x="151" y="1521" type="curve"/>
      <point x="151" y="1428" type="line"/>
      <point x="225" y="1428"/>
      <point x="361" y="1477"/>
      <point x="409" y="1534" type="curve"/>
    </contour>
  </outline>
</glyph>
<glyph name="two" format="1">
  <advance width="830"/>
  <unicode hex="0032"/>
  <outline>
    <contour>
      <point x="179" y="0" type="line"/>
      <point x="694" y="0" type="line"/>
      <point x="694" y="121" type="line"/>
      <point x="321" y="121" type="line"/>
      <point x="446.5" y="395" type="line"/>
      <point x="572" y="669" type="line" smooth="yes"/>
      <point x="670" y="882"/>
      <point x="718" y="1041"/>
      <point x="718" y="1310" type="curve" smooth="yes"/>
      <point x="718" y="1639"/>
      <point x="644" y="1780"/>
      <point x="467" y="1783" type="curve" smooth="yes"/>
      <point x="263" y="1786"/>
      <point x="176" y="1657"/>
      <point x="176" y="1323" type="curve" smooth="yes"/>
      <point x="176" y="1065" type="line"/>
      <point x="317" y="1065" type="line"/>
      <point x="317" y="1319" type="line" smooth="yes"/>
      <point x="317" y="1568"/>
      <point x="361" y="1654"/>
      <point x="450" y="1656" type="curve" smooth="yes"/>
      <point x="550" y="1658"/>
      <point x="579" y="1600"/>
      <point x="579" y="1305" type="curve" smooth="yes"/>
      <point x="579" y="1085"/>
      <point x="570" y="978"/>
      <point x="456" y="729" type="curve" smooth="yes"/>
      <point x="317.5" y="425" type="line"/>
      <point x="179" y="121" type="line"/>
    </contour>
  </outline>
</glyph>
<glyph name="three" format="1">
  <advance width="830"/>
  <unicode hex="0033"/>
  <outline>
    <contour>
      <point x="406" y="-20" type="curve" smooth="yes"/>
      <point x="628" y="-20"/>
      <point x="726" y="137"/>
      <point x="726" y="468" type="curve" smooth="yes"/>
      <point x="726" y="662"/>
      <point x="673" y="858"/>
      <point x="548" y="914" type="curve"/>
      <point x="675" y="962"/>
      <point x="723" y="1118"/>
      <point x="723" y="1321" type="curve" smooth="yes"/>
      <point x="723" y="1623"/>
      <point x="632" y="1780"/>
      <point x="407" y="1780" type="curve" smooth="yes"/>
      <point x="183" y="1780"/>
      <point x="106" y="1622"/>
      <point x="106" y="1321" type="curve" smooth="yes"/>
      <point x="106" y="1287" type="line"/>
      <point x="255" y="1287" type="line"/>
      <point x="255" y="1318" type="line" smooth="yes"/>
      <point x="255" y="1597"/>
      <point x="316" y="1655"/>
      <point x="404" y="1655" type="curve" smooth="yes"/>
      <point x="496" y="1655"/>
      <point x="573" y="1610"/>
      <point x="573" y="1322" type="curve" smooth="yes"/>
      <point x="573" y="1014"/>
      <point x="507" y="982"/>
      <point x="360" y="982" type="curve" smooth="yes"/>
      <point x="323" y="982" type="line"/>
      <point x="323" y="854" type="line"/>
      <point x="362" y="854" type="line" smooth="yes"/>
      <point x="511" y="854"/>
      <point x="576" y="771"/>
      <point x="576" y="472" type="curve" smooth="yes"/>
      <point x="576" y="197"/>
      <point x="544" y="104"/>
      <point x="412" y="104" type="curve" smooth="yes"/>
      <point x="278" y="104"/>
      <point x="250" y="184"/>
      <point x="250" y="474" type="curve" smooth="yes"/>
      <point x="250" y="517" type="line"/>
      <point x="100" y="517" type="line"/>
      <point x="100" y="474" type="line" smooth="yes"/>
      <point x="100" y="141"/>
      <point x="182" y="-20"/>
    </contour>
  </outline>
</glyph>
<glyph name="four" format="1">
  <advance width="830"/>
  <unicode hex="0034"/>
  <outline>
    <contour>
      <point x="485" y="0" type="line"/>
      <point x="620" y="0" type="line"/>
      <point x="620" y="352" type="line"/>
      <point x="774" y="352" type="line"/>
      <point x="774" y="468" type="line"/>
      <point x="620" y="468" type="line"/>
      <point x="620" y="1760" type="line"/>
      <point x="476" y="1760" type="line"/>
      <point x="95" y="449" type="line"/>
      <point x="95" y="352" type="line"/>
      <point x="485" y="352" type="line"/>
    </contour>
    <contour>
      <point x="217" y="468" type="line"/>
      <point x="485" y="1468" type="line"/>
      <point x="485" y="468" type="line"/>
    </contour>
  </outline>
</glyph>
<glyph name="five" format="1">
  <advance width="830"/>
  <unicode hex="0035"/>
  <outline>
    <contour>
      <point x="430" y="-20" type="curve" smooth="yes"/>
      <point x="627" y="-20"/>
      <point x="686" y="115"/>
      <point x="686" y="321" type="curve" smooth="yes"/>
      <point x="686" y="828" type="line" smooth="yes"/>
      <point x="686" y="1179"/>
      <point x="592" y="1229"/>
      <point x="459" y="1221" type="curve" smooth="yes"/>
      <point x="406" y="1218"/>
      <point x="342" y="1186"/>
      <point x="323" y="1126" type="curve"/>
      <point x="323" y="1624" type="line"/>
      <point x="648" y="1624" type="line"/>
      <point x="648" y="1760" type="line"/>
      <point x="188" y="1760" type="line"/>
      <point x="188" y="910" type="line"/>
      <point x="312" y="888" type="line"/>
      <point x="312" y="1028"/>
      <point x="366" y="1091"/>
      <point x="433" y="1091" type="curve" smooth="yes"/>
      <point x="516" y="1091"/>
      <point x="545" y="1021"/>
      <point x="545" y="869" type="curve" smooth="yes"/>
      <point x="545" y="274" type="line" smooth="yes"/>
      <point x="545" y="145"/>
      <point x="502" y="102"/>
      <point x="426" y="102" type="curve" smooth="yes"/>
      <point x="341" y="102"/>
      <point x="307" y="151"/>
      <point x="307" y="263" type="curve" smooth="yes"/>
      <point x="307" y="459" type="line"/>
      <point x="164" y="459" type="line"/>
      <point x="164" y="291" type="line" smooth="yes"/>
      <point x="164" y="131"/>
      <point x="209" y="-20"/>
    </contour>
  </outline>
</glyph>
<glyph name="seven" format="1">
  <advance width="830"/>
  <unicode hex="0037"/>
  <outline>
    <contour>
      <point x="236" y="1" type="curve"/>
      <point x="391" y="1" type="line"/>
      <point x="420" y="454"/>
      <point x="506" y="874"/>
      <point x="582" y="1175" type="curve" smooth="yes"/>
      <point x="659" y="1476"/>
      <point x="726" y="1662"/>
      <point x="728" y="1653" type="curve"/>
      <point x="728" y="1760" type="line"/>
      <point x="95" y="1760" type="line"/>
      <point x="95" y="1643" type="line"/>
      <point x="598" y="1643" type="line"/>
      <point x="598" y="1643"/>
      <point x="522" y="1472"/>
      <point x="434" y="1165" type="curve"/>
      <point x="358" y="886"/>
      <point x="274" y="477"/>
    </contour>
  </outline>
</glyph>
<glyph name="eight" format="1">
  <advance width="830"/>
  <unicode hex="0038"/>
  <outline>
    <contour>
      <point x="421" y="-20" type="curve" smooth="yes"/>
      <point x="624" y="-20"/>
      <point x="714" y="110"/>
      <point x="721" y="413" type="curve"/>
      <point x="721" y="434" type="line" smooth="yes"/>
      <point x="721" y="706"/>
      <point x="676" y="855"/>
      <point x="571" y="931" type="curve"/>
      <point x="673" y="1001"/>
      <point x="717" y="1126"/>
      <point x="717" y="1347" type="curve" smooth="yes"/>
      <point x="717" y="1650"/>
      <point x="629" y="1783"/>
      <point x="424" y="1783" type="curve" smooth="yes"/>
      <point x="217" y="1783"/>
      <point x="128" y="1650"/>
      <point x="128" y="1347" type="curve" smooth="yes"/>
      <point x="128" y="1121"/>
      <point x="169" y="995"/>
      <point x="265" y="927" type="curve"/>
      <point x="156" y="853"/>
      <point x="110" y="705"/>
      <point x="110" y="434" type="curve" smooth="yes"/>
      <point x="110" y="417"/>
      <point x="111" y="420"/>
      <point x="111" y="403" type="curve" smooth="yes"/>
      <point x="120" y="107"/>
      <point x="213" y="-20"/>
    </contour>
    <contour>
      <point x="423" y="103" type="curve" smooth="yes"/>
      <point x="310" y="103"/>
      <point x="261" y="200"/>
      <point x="259" y="428" type="curve" smooth="yes"/>
      <point x="259" y="442.295"/>
      <point x="259.105" y="456.211"/>
      <point x="259.316" y="469.753" type="curve" smooth="yes"/>
      <point x="263.675" y="748.931"/>
      <point x="313.32" y="869"/>
      <point x="423" y="869" type="curve" smooth="yes"/>
      <point x="521.91" y="869"/>
      <point x="567.454" y="752.318"/>
      <point x="572.535" y="481.963" type="curve" smooth="yes"/>
      <point x="572.797" y="468.051"/>
      <point x="572.951" y="453.731"/>
      <point x="573" y="439" type="curve" smooth="yes"/>
      <point x="572" y="204"/>
      <point x="527" y="103"/>
    </contour>
    <contour>
      <point x="421" y="982" type="curve" smooth="yes"/>
      <point x="320" y="982"/>
      <point x="277" y="1092"/>
      <point x="277" y="1348" type="curve" smooth="yes"/>
      <point x="277" y="1562"/>
      <point x="320" y="1653"/>
      <point x="421" y="1653" type="curve" smooth="yes"/>
      <point x="524" y="1653"/>
      <point x="568" y="1563"/>
      <point x="568" y="1353" type="curve" smooth="yes"/>
      <point x="568" y="1093"/>
      <point x="524" y="982"/>
    </contour>
  </outline>
</glyph>
<glyph name="nine" format="1">
  <advance width="830"/>
  <unicode hex="0039"/>
  <outline>
    <contour>
      <point x="418" y="-20" type="curve" smooth="yes"/>
      <point x="674" y="-20"/>
      <point x="694" y="186"/>
      <point x="694" y="542" type="curve" smooth="yes"/>
      <point x="694" y="1254" type="line" smooth="yes"/>
      <point x="694" y="1548"/>
      <point x="675" y="1782"/>
      <point x="402" y="1782" type="curve" smooth="yes"/>
      <point x="126" y="1782"/>
      <point x="109" y="1549"/>
      <point x="109" y="1252" type="curve" smooth="yes"/>
      <point x="109" y="1226" type="line" smooth="yes"/>
      <point x="109" y="857"/>
      <point x="151" y="662"/>
      <point x="394" y="662" type="curve" smooth="yes"/>
      <point x="453" y="662"/>
      <point x="509" y="678"/>
      <point x="544" y="712" type="curve"/>
      <point x="544" y="523" type="line" smooth="yes"/>
      <point x="544" y="226"/>
      <point x="558" y="103"/>
      <point x="431" y="103" type="curve" smooth="yes"/>
      <point x="311" y="103"/>
      <point x="294" y="157"/>
      <point x="292" y="483" type="curve"/>
      <point x="292" y="508" type="line"/>
      <point x="149" y="508" type="line"/>
      <point x="149" y="491"/>
      <point x="149" y="489"/>
      <point x="150" y="473" type="curve" smooth="yes"/>
      <point x="155" y="140"/>
      <point x="200" y="-20"/>
    </contour>
    <contour>
      <point x="408" y="776" type="curve" smooth="yes"/>
      <point x="272" y="776"/>
      <point x="259" y="885"/>
      <point x="259" y="1208" type="curve" smooth="yes"/>
      <point x="259" y="1257" type="line" smooth="yes"/>
      <point x="259" y="1518"/>
      <point x="268" y="1653"/>
      <point x="403" y="1653" type="curve" smooth="yes"/>
      <point x="531" y="1653"/>
      <point x="544" y="1518"/>
      <point x="544" y="1255" type="curve" smooth="yes"/>
      <point x="544" y="803" type="line"/>
      <point x="524" y="794"/>
      <point x="483" y="776"/>
    </contour>
  </outline>
</glyph>
<glyph name="colon" format="1">
  <advance width="555"/>
  <unicode hex="003A"/>
  <outline>
    <contour>
      <point x="179" y="312" type="line"/>
      <point x="362" y="312" type="line"/>
      <point x="362" y="543" type="line"/>
      <point x="179" y="543" type="line"/>
    </contour>
    <contour>
      <point x="179" y="1048" type="line"/>
      <point x="362" y="1048" type="line"/>
      <point x="362" y="1279" type="line"/>
      <point x="179" y="1279" type="line"/>
    </contour>
  </outline>
</glyph>
<glyph name="semicolon" format="1">
  <advance width="561"/>
  <unicode hex="003B"/>
  <outline>
    <contour>
      <point x="200" y="0" type="line"/>
      <point x="277" y="0" type="line"/>
      <point x="381" y="359" type="line"/>
      <point x="381" y="523" type="line"/>
      <point x="181" y="523" type="line"/>
      <point x="181" y="350" type="line"/>
      <point x="296" y="350" type="line"/>
    </contour>
    <contour>
      <point x="179" y="1048" type="line"/>
      <point x="362" y="1048" type="line"/>
      <point x="362" y="1279" type="line"/>
      <point x="179" y="1279" type="line"/>
    </contour>
  </outline>
</glyph>
<glyph name="equal" format="1">
  <advance width="722"/>
  <unicode hex="003D"/>
  <outline>
    <contour>
      <point x="94" y="601" type="line"/>
      <point x="628" y="601" type="line"/>
      <point x="628" y="729" type="line"/>
      <point x="94" y="729" type="line"/>
    </contour>
    <contour>
      <point x="94" y="896" type="line"/>
      <point x="628" y="896" type="line"/>
      <point x="628" y="1025" type="line"/>
      <point x="94" y="1025" type="line"/>
    </contour>
  </outline>
</glyph>
<glyph name="question" format="1">
  <advance width="708"/>
  <unicode hex="003F"/>
  <outline>
    <contour>
      <point x="228" y="494" type="line"/>
      <point x="353" y="494" type="line"/>
      <point x="353" y="750" type="line"/>
      <point x="562" y="808"/>
      <point x="623" y="968"/>
      <point x="623" y="1314" type="curve" smooth="yes"/>
      <point x="623" y="1590"/>
      <point x="631" y="1782"/>
      <point x="392" y="1782" type="curve" smooth="yes"/>
      <point x="121" y="1782"/>
      <point x="158" y="1510"/>
      <point x="158" y="1365" type="curve" smooth="yes"/>
      <point x="158" y="1160" type="line"/>
      <point x="290" y="1160" type="line"/>
      <point x="290" y="1375" type="line" smooth="yes"/>
      <point x="290" y="1596"/>
      <point x="309" y="1661"/>
      <point x="396" y="1661" type="curve" smooth="yes"/>
      <point x="476" y="1661"/>
      <point x="491" y="1578"/>
      <point x="491" y="1369" type="curve" smooth="yes"/>
      <point x="491" y="1025"/>
      <point x="476" y="901"/>
      <point x="228" y="810" type="curve"/>
    </contour>
    <contour>
      <point x="227" y="1" type="line"/>
      <point x="353" y="1" type="line"/>
      <point x="353" y="299" type="line"/>
      <point x="227" y="299" type="line"/>
    </contour>
  </outline>
</glyph>
<glyph name="at" format="1">
  <advance width="1340"/>
  <unicode hex="0040"/>
  <outline>
    <contour>
      <point x="1161" y="121" type="curve"/>
      <point x="1143" y="221" type="line"/>
      <point x="655" y="44"/>
      <point x="188" y="179"/>
      <point x="188" y="787" type="curve" smooth="yes"/>
      <point x="188" y="1215"/>
      <point x="322" y="1514"/>
      <point x="732" y="1514" type="curve" smooth="yes"/>
      <point x="1148" y="1514"/>
      <point x="1171" y="1169"/>
      <point x="1171" y="864" type="curve" smooth="yes"/>
      <point x="1171" y="591"/>
      <point x="1128" y="468"/>
      <point x="1052" y="468" type="curve" smooth="yes"/>
      <point x="993" y="468"/>
      <point x="975" y="529"/>
      <point x="975" y="641" type="curve" smooth="yes"/>
      <point x="975" y="1237" type="line"/>
      <point x="874.663" y="1269.87"/>
      <point x="790.024" y="1284.34"/>
      <point x="718.763" y="1284.26" type="curve" smooth="yes"/>
      <point x="421.421" y="1283.92"/>
      <point x="357" y="1030.1"/>
      <point x="357" y="801" type="curve" smooth="yes"/>
      <point x="357" y="497.633"/>
      <point x="506.164" y="375.417"/>
      <point x="647.48" y="373.747" type="curve" smooth="yes"/>
      <point x="753.517" y="372.495"/>
      <point x="855.135" y="439.114"/>
      <point x="886" y="548" type="curve"/>
      <point x="902" y="445"/>
      <point x="965" y="382"/>
      <point x="1051" y="382" type="curve" smooth="yes"/>
      <point x="1217" y="382"/>
      <point x="1280" y="606"/>
      <point x="1280" y="867" type="curve" smooth="yes"/>
      <point x="1280" y="1321"/>
      <point x="1155" y="1616"/>
      <point x="739" y="1616" type="curve" smooth="yes"/>
      <point x="224" y="1616"/>
      <point x="60" y="1277"/>
      <point x="60" y="790" type="curve" smooth="yes"/>
      <point x="60" y="179"/>
      <point x="530" y="-81"/>
    </contour>
    <contour>
      <point x="648.875" y="467.25" type="curve" smooth="yes"/>
      <point x="560" y="471.25"/>
      <point x="477" y="558.5"/>
      <point x="477" y="806" type="curve" smooth="yes"/>
      <point x="477" y="1216"/>
      <point x="697" y="1216"/>
      <point x="856" y="1188" type="curve"/>
      <point x="856" y="628" type="line"/>
      <point x="832.5" y="542.5"/>
      <point x="737.75" y="463.25"/>
    </contour>
  </outline>
</glyph>
<glyph name="A" format="1">
  <advance width="817"/>
  <unicode hex="0041"/>
  <outline>
    <contour>
      <point x="35" y="0" type="line"/>
      <point x="176" y="0" type="line"/>
      <point x="229" y="362" type="line"/>
      <point x="581" y="362" type="line"/>
      <point x="639" y="0" type="line"/>
      <point x="783" y="0" type="line"/>
      <point x="470" y="1760" type="line"/>
      <point x="318" y="1760" type="line"/>
    </contour>
    <contour>
      <point x="248" y="473" type="line"/>
      <point x="397" y="1476" type="line"/>
      <point x="399" y="1476" type="line"/>
      <point x="561" y="473" type="line"/>
    </contour>
  </outline>
</glyph>
<glyph name="B" format="1">
  <advance width="868"/>
  <unicode hex="0042"/>
  <outline>
    <contour>
      <point x="166" y="0" type="line"/>
      <point x="468" y="0" type="line" smooth="yes"/>
      <point x="712" y="0"/>
      <point x="770" y="152"/>
      <point x="775" y="487" type="curve"/>
      <point x="775" y="518" type="line" smooth="yes"/>
      <point x="775" y="712"/>
      <point x="751" y="892"/>
      <point x="638" y="947" type="curve"/>
      <point x="736" y="1011"/>
      <point x="751" y="1136"/>
      <point x="751" y="1343" type="curve" smooth="yes"/>
      <point x="751" y="1366" type="line"/>
      <point x="748" y="1647"/>
      <point x="697" y="1760"/>
      <point x="423" y="1760" type="curve" smooth="yes"/>
      <point x="166" y="1760" type="line"/>
    </contour>
    <contour>
      <point x="315" y="128" type="line"/>
      <point x="315" y="884" type="line"/>
      <point x="476" y="884" type="line" smooth="yes"/>
      <point x="599" y="884"/>
      <point x="625" y="785"/>
      <point x="626" y="536" type="curve" smooth="yes"/>
      <point x="626" y="530.714"/>
      <point x="625.993" y="525.492"/>
      <point x="625.978" y="520.332" type="curve" smooth="yes"/>
      <point x="625.087" y="211.2"/>
      <point x="596.932" y="128"/>
      <point x="473" y="128" type="curve" smooth="yes"/>
    </contour>
    <contour>
      <point x="315" y="1004" type="line"/>
      <point x="315" y="1629" type="line"/>
      <point x="427" y="1629" type="line" smooth="yes"/>
      <point x="553" y="1629"/>
      <point x="600" y="1597"/>
      <point x="602" y="1349" type="curve" smooth="yes"/>
      <point x="602" y="1344.26"/>
      <point x="601.995" y="1339.59"/>
      <point x="601.984" y="1334.98" type="curve" smooth="yes"/>
      <point x="601.276" y="1024.39"/>
      <point x="576.113" y="1004"/>
      <point x="449" y="1004" type="curve" smooth="yes"/>
    </contour>
  </outline>
</glyph>
<glyph name="C" format="1">
  <advance width="868"/>
  <unicode hex="0043"/>
  <outline>
    <contour>
      <point x="448" y="-20" type="curve" smooth="yes"/>
      <point x="704" y="-20"/>
      <point x="750" y="183"/>
      <point x="750" y="552" type="curve" smooth="yes"/>
      <point x="750" y="692" type="line"/>
      <point x="600" y="692" type="line"/>
      <point x="600" y="551" type="line" smooth="yes"/>
      <point x="600" y="228"/>
      <point x="577" y="102"/>
      <point x="447" y="102" type="curve" smooth="yes"/>
      <point x="311" y="102"/>
      <point x="285" y="227"/>
      <point x="285" y="552" type="curve" smooth="yes"/>
      <point x="285" y="1258" type="line" smooth="yes"/>
      <point x="285" y="1520"/>
      <point x="320" y="1658"/>
      <point x="453" y="1658" type="curve" smooth="yes"/>
      <point x="582" y="1658"/>
      <point x="600" y="1518"/>
      <point x="600" y="1257" type="curve" smooth="yes"/>
      <point x="600" y="1087" type="line"/>
      <point x="751" y="1087" type="line"/>
      <point x="751" y="1239" type="line" smooth="yes"/>
      <point x="751" y="1545"/>
      <point x="739" y="1782"/>
      <point x="454" y="1782" type="curve" smooth="yes"/>
      <point x="174" y="1782"/>
      <point x="136" y="1550"/>
      <point x="136" y="1251" type="curve" smooth="yes"/>
      <point x="136" y="550" type="line" smooth="yes"/>
      <point x="136" y="180"/>
      <point x="190" y="-20"/>
    </contour>
  </outline>
</glyph>
<glyph name="D" format="1">
  <advance width="914"/>
  <unicode hex="0044"/>
  <outline>
    <contour>
      <point x="314" y="128" type="line"/>
      <point x="314" y="1636" type="line"/>
      <point x="446" y="1636" type="line" smooth="yes"/>
      <point x="570" y="1636"/>
      <point x="629" y="1534"/>
      <point x="629" y="1274" type="curve" smooth="yes"/>
      <point x="629" y="519" type="line" smooth="yes"/>
      <point x="629" y="194"/>
      <point x="566" y="128"/>
      <point x="437" y="128" type="curve" smooth="yes"/>
    </contour>
    <contour>
      <point x="166" y="0" type="line"/>
      <point x="431" y="0" type="line" smooth="yes"/>
      <point x="686" y="0"/>
      <point x="778" y="138"/>
      <point x="778" y="504" type="curve" smooth="yes"/>
      <point x="778" y="1258" type="line" smooth="yes"/>
      <point x="778" y="1564"/>
      <point x="722" y="1760"/>
      <point x="437" y="1760" type="curve" smooth="yes"/>
      <point x="166" y="1760" type="line"/>
    </contour>
  </outline>
</glyph>
<glyph name="F" format="1">
  <advance width="695"/>
  <unicode hex="0046"/>
  <outline>
    <contour>
      <point x="166" y="0" type="line"/>
      <point x="314" y="0" type="line"/>
      <point x="314" y="886" type="line"/>
      <point x="611" y="886" type="line"/>
      <point x="611" y="1005" type="line"/>
      <point x="314" y="1005" type="line"/>
      <point x="314" y="1644" type="line"/>
      <point x="628" y="1644" type="line"/>
      <point x="628" y="1760" type="line"/>
      <point x="166" y="1760" type="line"/>
    </contour>
  </outline>
</glyph>
<glyph name="G" format="1">
  <advance width="890"/>
  <unicode hex="0047"/>
  <outline>
    <contour>
      <point x="419" y="-20" type="curve" smooth="yes"/>
      <point x="528" y="-20"/>
      <point x="588" y="23"/>
      <point x="635" y="102" type="curve"/>
      <point x="651" y="0" type="line"/>
      <point x="749" y="0" type="line"/>
      <point x="749" y="890" type="line"/>
      <point x="450" y="890" type="line"/>
      <point x="450" y="763" type="line"/>
      <point x="601" y="763" type="line"/>
      <point x="601" y="541" type="line" smooth="yes"/>
      <point x="601" y="226"/>
      <point x="572" y="102"/>
      <point x="445" y="102" type="curve" smooth="yes"/>
      <point x="312" y="102"/>
      <point x="285" y="225"/>
      <point x="285" y="543" type="curve" smooth="yes"/>
      <point x="285" y="1261" type="line" smooth="yes"/>
      <point x="285" y="1551"/>
      <point x="325" y="1658"/>
      <point x="451" y="1658" type="curve" smooth="yes"/>
      <point x="573" y="1658"/>
      <point x="597" y="1555"/>
      <point x="597" y="1372" type="curve" smooth="yes"/>
      <point x="597" y="1100" type="line"/>
      <point x="749" y="1100" type="line"/>
      <point x="749" y="1247" type="line" smooth="yes"/>
      <point x="749" y="1547"/>
      <point x="732" y="1782"/>
      <point x="456" y="1782" type="curve" smooth="yes"/>
      <point x="174" y="1782"/>
      <point x="136" y="1546"/>
      <point x="136" y="1245" type="curve" smooth="yes"/>
      <point x="136" y="532" type="line" smooth="yes"/>
      <point x="136" y="139"/>
      <point x="223" y="-20"/>
    </contour>
  </outline>
</glyph>
<glyph name="J" format="1">
  <advance width="784"/>
  <unicode hex="004A"/>
  <outline>
    <contour>
      <point x="361" y="-20" type="curve" smooth="yes"/>
      <point x="556" y="-20"/>
      <point x="630" y="118"/>
      <point x="630" y="420" type="curve" smooth="yes"/>
      <point x="630" y="1760" type="line"/>
      <point x="481" y="1760" type="line"/>
      <point x="481" y="418" type="line" smooth="yes"/>
      <point x="481" y="234"/>
      <point x="487" y="102"/>
      <point x="355" y="102" type="curve" smooth="yes"/>
      <point x="225" y="102"/>
      <point x="229" y="241"/>
      <point x="229" y="402" type="curve" smooth="yes"/>
      <point x="229" y="540" type="line"/>
      <point x="78" y="540" type="line"/>
      <point x="78" y="389" type="line" smooth="yes"/>
      <point x="78" y="112"/>
      <point x="144" y="-20"/>
    </contour>
  </outline>
</glyph>
<glyph name="K" format="1">
  <advance width="854"/>
  <unicode hex="004B"/>
  <outline>
    <contour>
      <point x="166" y="0" type="line"/>
      <point x="317" y="0" type="line"/>
      <point x="317" y="860" type="line"/>
      <point x="683" y="0" type="line"/>
      <point x="837" y="0" type="line"/>
      <point x="452" y="891" type="line"/>
      <point x="814" y="1760" type="line"/>
      <point x="670" y="1760" type="line"/>
      <point x="315" y="893" type="line"/>
      <point x="315" y="1760" type="line"/>
      <point x="166" y="1760" type="line"/>
    </contour>
  </outline>
</glyph>
<glyph name="L" format="1">
  <advance width="643"/>
  <unicode hex="004C"/>
  <outline>
    <contour>
      <point x="166" y="0" type="line"/>
      <point x="627" y="0" type="line"/>
      <point x="627" y="118" type="line"/>
      <point x="315" y="118" type="line"/>
      <point x="315" y="1760" type="line"/>
      <point x="166" y="1760" type="line"/>
    </contour>
  </outline>
</glyph>
<glyph name="M" format="1">
  <advance width="1204"/>
  <unicode hex="004D"/>
  <outline>
    <contour>
      <point x="166" y="0" type="line"/>
      <point x="302" y="0" type="line"/>
      <point x="302" y="754" type="line"/>
      <point x="279" y="1463" type="line"/>
      <point x="539" y="38" type="line"/>
      <point x="681" y="38" type="line"/>
      <point x="932" y="1463" type="line"/>
      <point x="909" y="754" type="line"/>
      <point x="909" y="0" type="line"/>
      <point x="1044" y="0" type="line"/>
      <point x="1044" y="1760" type="line"/>
      <point x="877" y="1760" type="line"/>
      <point x="610" y="282" type="line"/>
      <point x="333" y="1760" type="line"/>
      <point x="166" y="1760" type="line"/>
    </contour>
  </outline>
</glyph>
<glyph name="P" format="1">
  <advance width="847"/>
  <unicode hex="0050"/>
  <outline>
    <contour>
      <point x="166" y="0" type="line"/>
      <point x="315" y="0" type="line"/>
      <point x="315" y="689" type="line"/>
      <point x="463" y="689" type="line" smooth="yes"/>
      <point x="718" y="689"/>
      <point x="777" y="863"/>
      <point x="777" y="1231" type="curve" smooth="yes"/>
      <point x="777" y="1249" type="line"/>
      <point x="778" y="1548"/>
      <point x="755" y="1760"/>
      <point x="472" y="1760" type="curve" smooth="yes"/>
      <point x="166" y="1760" type="line"/>
    </contour>
    <contour>
      <point x="315" y="815" type="line"/>
      <point x="315" y="1636" type="line"/>
      <point x="480" y="1636" type="line" smooth="yes"/>
      <point x="604" y="1636"/>
      <point x="629" y="1520"/>
      <point x="628" y="1263" type="curve"/>
      <point x="628" y="1229" type="line" smooth="yes"/>
      <point x="628" y="915"/>
      <point x="597" y="815"/>
      <point x="473" y="815" type="curve" smooth="yes"/>
    </contour>
  </outline>
</glyph>
<glyph name="Q" format="1">
  <advance width="891"/>
  <unicode hex="0051"/>
  <outline>
    <component base="O"/>
    <contour>
      <point x="622" y="-389" type="line"/>
      <point x="720" y="-337" type="line"/>
      <point x="518" y="27" type="line"/>
      <point x="409" y="-17" type="line"/>
    </contour>
  </outline>
</glyph>
<glyph name="R" format="1">
  <advance width="899"/>
  <unicode hex="0052"/>
  <outline>
    <contour>
      <point x="166" y="0" type="line"/>
      <point x="315" y="0" type="line"/>
      <point x="315" y="868" type="line"/>
      <point x="473" y="858" type="line"/>
      <point x="633" y="858"/>
      <point x="629" y="798"/>
      <point x="629" y="557" type="curve" smooth="yes"/>
      <point x="629" y="82"/>
      <point x="630" y="41"/>
      <point x="651" y="0" type="curve"/>
      <point x="799" y="0" type="line"/>
      <point x="777" y="58"/>
      <point x="777" y="84"/>
      <point x="777" y="164" type="curve" smooth="yes"/>
      <point x="777" y="764"/>
      <point x="752" y="903"/>
      <point x="616" y="925" type="curve"/>
      <point x="739" y="959"/>
      <point x="778" y="1100"/>
      <point x="778" y="1326" type="curve" smooth="yes"/>
      <point x="778" y="1630"/>
      <point x="748" y="1760"/>
      <point x="465" y="1760" type="curve" smooth="yes"/>
      <point x="166" y="1760" type="line"/>
    </contour>
    <contour>
      <point x="314" y="968" type="line"/>
      <point x="314" y="1636" type="line"/>
      <point x="481" y="1636" type="line" smooth="yes"/>
      <point x="603" y="1636"/>
      <point x="629" y="1594"/>
      <point x="629" y="1335" type="curve" smooth="yes"/>
      <point x="629" y="1322" type="line" smooth="yes"/>
      <point x="629" y="1006"/>
      <point x="598" y="968"/>
      <point x="470" y="968" type="curve" smooth="yes"/>
    </contour>
  </outline>
</glyph>
<glyph name="S" format="1">
  <advance width="794"/>
  <unicode hex="0053"/>
  <outline>
    <contour>
      <point x="411" y="-20" type="curve" smooth="yes"/>
      <point x="676" y="-20"/>
      <point x="724" y="167"/>
      <point x="724" y="436" type="curve" smooth="yes"/>
      <point x="724" y="668"/>
      <point x="644" y="815"/>
      <point x="511" y="946" type="curve" smooth="yes"/>
      <point x="414" y="1042" type="line" smooth="yes"/>
      <point x="297" y="1157"/>
      <point x="240" y="1202"/>
      <point x="240" y="1371" type="curve" smooth="yes"/>
      <point x="240" y="1606"/>
      <point x="287" y="1658"/>
      <point x="404" y="1658" type="curve" smooth="yes"/>
      <point x="525" y="1658"/>
      <point x="562" y="1576"/>
      <point x="562" y="1253" type="curve" smooth="yes"/>
      <point x="562" y="1143" type="line"/>
      <point x="695" y="1143" type="line"/>
      <point x="695" y="1242" type="line" smooth="yes"/>
      <point x="695" y="1545"/>
      <point x="691" y="1783"/>
      <point x="402" y="1783" type="curve" smooth="yes"/>
      <point x="136" y="1783"/>
      <point x="91" y="1599"/>
      <point x="91" y="1346" type="curve" smooth="yes"/>
      <point x="91" y="1144"/>
      <point x="219" y="1018"/>
      <point x="315" y="930" type="curve" smooth="yes"/>
      <point x="419" y="834" type="line" smooth="yes"/>
      <point x="533" y="729"/>
      <point x="572" y="633"/>
      <point x="572" y="452" type="curve" smooth="yes"/>
      <point x="572" y="204"/>
      <point x="565" y="102"/>
      <point x="420" y="102" type="curve" smooth="yes"/>
      <point x="281" y="102"/>
      <point x="251" y="224"/>
      <point x="251" y="526" type="curve" smooth="yes"/>
      <point x="251" y="705" type="line"/>
      <point x="105" y="705" type="line"/>
      <point x="105" y="523" type="line" smooth="yes"/>
      <point x="105" y="224"/>
      <point x="131" y="-20"/>
    </contour>
  </outline>
</glyph>
<glyph name="U" format="1">
  <advance width="915"/>
  <unicode hex="0055"/>
  <outline>
    <contour>
      <point x="459" y="-20" type="curve" smooth="yes"/>
      <point x="708" y="-20"/>
      <point x="767" y="132"/>
      <point x="767" y="452" type="curve" smooth="yes"/>
      <point x="767" y="1760" type="line"/>
      <point x="618" y="1760" type="line"/>
      <point x="618" y="456" type="line" smooth="yes"/>
      <point x="618" y="227"/>
      <point x="618" y="102"/>
      <point x="460" y="102" type="curve" smooth="yes"/>
      <point x="303" y="102"/>
      <point x="297" y="228"/>
      <point x="297" y="457" type="curve" smooth="yes"/>
      <point x="297" y="1760" type="line"/>
      <point x="148" y="1760" type="line"/>
      <point x="148" y="452" type="line" smooth="yes"/>
      <point x="148" y="132"/>
      <point x="210" y="-20"/>
    </contour>
  </outline>
</glyph>
<glyph name="W" format="1">
  <advance width="1312"/>
  <unicode hex="0057"/>
  <outline>
    <contour>
      <point x="306" y="0" type="line"/>
      <point x="443" y="0" type="line"/>
      <point x="677" y="1448" type="line"/>
      <point x="895" y="0" type="line"/>
      <point x="1042" y="0" type="line"/>
      <point x="1255" y="1760" type="line"/>
      <point x="1114" y="1760" type="line"/>
      <point x="966" y="322" type="line"/>
      <point x="731" y="1760" type="line"/>
      <point x="607" y="1760" type="line"/>
      <point x="387" y="322" type="line"/>
      <point x="203" y="1760" type="line"/>
      <point x="57" y="1760" type="line"/>
    </contour>
  </outline>
</glyph>
<glyph name="X" format="1">
  <advance width="710"/>
  <unicode hex="0058"/>
  <outline>
    <contour>
      <point x="52" y="0" type="line"/>
      <point x="176" y="0" type="line"/>
      <point x="347" y="680" type="line"/>
      <point x="523" y="0" type="line"/>
      <point x="656" y="0" type="line"/>
      <point x="437" y="853" type="line"/>
      <point x="659" y="1760" type="line"/>
      <point x="535" y="1760" type="line"/>
      <point x="373" y="1101" type="line"/>
      <point x="204" y="1760" type="line"/>
      <point x="67" y="1760" type="line"/>
      <point x="285" y="919" type="line"/>
    </contour>
  </outline>
</glyph>
<glyph name="Y" format="1">
  <advance width="786"/>
  <unicode hex="0059"/>
  <outline>
    <contour>
      <point x="334" y="0" type="line"/>
      <point x="483" y="0" type="line"/>
      <point x="483" y="773" type="line"/>
      <point x="770" y="1760" type="line"/>
      <point x="616" y="1760" type="line"/>
      <point x="410" y="982" type="line"/>
      <point x="407" y="982" type="line"/>
      <point x="166" y="1760" type="line"/>
      <point x="16" y="1760" type="line"/>
      <point x="334" y="772" type="line"/>
    </contour>
  </outline>
</glyph>
<glyph name="Z" format="1">
  <advance width="638"/>
  <unicode hex="005A"/>
  <outline>
    <contour>
      <point x="85" y="0" type="line"/>
      <point x="570" y="0" type="line"/>
      <point x="570" y="118" type="line"/>
      <point x="235" y="118" type="line"/>
      <point x="576" y="1658" type="line"/>
      <point x="576" y="1760" type="line"/>
      <point x="94" y="1760" type="line"/>
      <point x="94" y="1644" type="line"/>
      <point x="424" y="1644" type="line"/>
      <point x="85" y="125" type="line"/>
    </contour>
  </outline>
</glyph>
<glyph name="bracketleft" format="1">
  <advance width="589"/>
  <unicode hex="005B"/>
  <outline>
    <contour>
      <point x="166" y="-80" type="line"/>
      <point x="529" y="-80" type="line"/>
      <point x="529" y="35" type="line"/>
      <point x="315" y="35" type="line"/>
      <point x="315" y="1646" type="line"/>
      <point x="529" y="1646" type="line"/>
      <point x="529" y="1760" type="line"/>
      <point x="166" y="1760" type="line"/>
    </contour>
  </outline>
</glyph>
<glyph name="backslash" format="1">
  <advance width="726"/>
  <unicode hex="005C"/>
  <outline>
    <contour>
      <point x="505" y="0" type="line"/>
      <point x="632" y="0" type="line"/>
      <point x="222" y="1760" type="line"/>
      <point x="94" y="1760" type="line"/>
    </contour>
  </outline>
</glyph>
<glyph name="bracketright" format="1">
  <advance width="589"/>
  <unicode hex="005D"/>
  <outline>
    <contour>
      <point x="60" y="-80" type="line"/>
      <point x="423" y="-80" type="line"/>
      <point x="423" y="1760" type="line"/>
      <point x="60" y="1760" type="line"/>
      <point x="60" y="1646" type="line"/>
      <point x="274" y="1646" type="line"/>
      <point x="274" y="35" type="line"/>
      <point x="60" y="35" type="line"/>
    </contour>
  </outline>
</glyph>
<glyph name="asciicircum" format="1">
  <advance width="972"/>
  <unicode hex="005E"/>
  <outline>
    <contour>
      <point x="142" y="837" type="line"/>
      <point x="293" y="837" type="line"/>
      <point x="487" y="1648" type="line"/>
      <point x="681" y="837" type="line"/>
      <point x="830" y="837" type="line"/>
      <point x="589" y="1760" type="line"/>
      <point x="383" y="1760" type="line"/>
    </contour>
  </outline>
</glyph>
<glyph name="grave" format="1">
  <advance width="650"/>
  <unicode hex="0060"/>
  <outline>
    <contour>
      <point x="360" y="-119" type="line"/>
      <point x="429" y="-119" type="line"/>
      <point x="335" y="213" type="line"/>
      <point x="175" y="213" type="line"/>
    </contour>
  </outline>
</glyph>
<glyph name="a" format="1">
  <advance width="844"/>
  <unicode hex="0061"/>
  <outline>
    <contour>
      <point x="366" y="-11" type="curve" smooth="yes"/>
      <point x="489" y="-11"/>
      <point x="551" y="75"/>
      <point x="563" y="112" type="curve"/>
      <point x="563" y="0" type="line"/>
      <point x="712" y="0" type="line"/>
      <point x="712" y="976" type="line" smooth="yes"/>
      <point x="712" y="1327"/>
      <point x="716" y="1518"/>
      <point x="433" y="1518" type="curve" smooth="yes"/>
      <point x="154" y="1518"/>
      <point x="145" y="1292"/>
      <point x="145" y="1051" type="curve" smooth="yes"/>
      <point x="145" y="1011" type="line"/>
      <point x="295" y="1011" type="line"/>
      <point x="295" y="1048" type="line" smooth="yes"/>
      <point x="295" y="1293"/>
      <point x="308" y="1387"/>
      <point x="433" y="1387" type="curve" smooth="yes"/>
      <point x="561" y="1387"/>
      <point x="563" y="1288"/>
      <point x="563" y="1058" type="curve" smooth="yes"/>
      <point x="563" y="956" type="line"/>
      <point x="319" y="851"/>
      <point x="127" y="782"/>
      <point x="127" y="569" type="curve" smooth="yes"/>
      <point x="127" y="377" type="line" smooth="yes"/>
      <point x="127" y="127"/>
      <point x="207" y="-11"/>
    </contour>
    <contour>
      <point x="393" y="113" type="curve" smooth="yes"/>
      <point x="297" y="113"/>
      <point x="275" y="190"/>
      <point x="275" y="390" type="curve" smooth="yes"/>
      <point x="275" y="509" type="line" smooth="yes"/>
      <point x="275" y="702"/>
      <point x="314" y="725"/>
      <point x="563" y="837" type="curve"/>
      <point x="563" y="211" type="line"/>
      <point x="540" y="170"/>
      <point x="471" y="113"/>
    </contour>
  </outline>
</glyph>
<glyph name="b" format="1">
  <advance width="874"/>
  <unicode hex="0062"/>
  <outline>
    <contour>
      <point x="510" y="-11" type="curve" smooth="yes"/>
      <point x="717" y="-11"/>
      <point x="746" y="204"/>
      <point x="746" y="490" type="curve" smooth="yes"/>
      <point x="746" y="1012" type="line" smooth="yes"/>
      <point x="746" y="1297"/>
      <point x="708" y="1528"/>
      <point x="480" y="1518" type="curve" smooth="yes"/>
      <point x="407" y="1515"/>
      <point x="324" y="1455"/>
      <point x="309" y="1372" type="curve"/>
      <point x="309" y="1783" type="line"/>
      <point x="160" y="1783" type="line"/>
      <point x="160" y="0" type="line"/>
      <point x="309" y="0" type="line"/>
      <point x="309" y="114" type="line"/>
      <point x="350" y="19"/>
      <point x="433" y="-11"/>
    </contour>
    <contour>
      <point x="460" y="115" type="curve"/>
      <point x="335" y="115"/>
      <point x="309" y="221"/>
      <point x="309" y="460" type="curve" smooth="yes"/>
      <point x="309" y="1059" type="line" smooth="yes"/>
      <point x="309" y="1352"/>
      <point x="371" y="1386"/>
      <point x="467" y="1386" type="curve" smooth="yes"/>
      <point x="585" y="1386"/>
      <point x="597" y="1258"/>
      <point x="597" y="1061" type="curve" smooth="yes"/>
      <point x="597" y="466" type="line" smooth="yes"/>
      <point x="597" y="214"/>
      <point x="569" y="116"/>
    </contour>
  </outline>
</glyph>
<glyph name="d" format="1">
  <advance width="855"/>
  <unicode hex="0064"/>
  <outline>
    <contour>
      <point x="365" y="-11" type="curve" smooth="yes"/>
      <point x="439" y="-11"/>
      <point x="523" y="18"/>
      <point x="564" y="114" type="curve"/>
      <point x="564" y="0" type="line"/>
      <point x="714" y="0" type="line"/>
      <point x="714" y="1783" type="line"/>
      <point x="564" y="1783" type="line"/>
      <point x="564" y="1393" type="line"/>
      <point x="538" y="1459"/>
      <point x="476" y="1518"/>
      <point x="405" y="1518" type="curve" smooth="yes"/>
      <point x="172" y="1518"/>
      <point x="128" y="1298"/>
      <point x="128" y="1008" type="curve" smooth="yes"/>
      <point x="128" y="481" type="line" smooth="yes"/>
      <point x="128" y="200"/>
      <point x="163" y="-11"/>
    </contour>
    <contour>
      <point x="409" y="114" type="curve" smooth="yes"/>
      <point x="290" y="114"/>
      <point x="278" y="243"/>
      <point x="278" y="436" type="curve" smooth="yes"/>
      <point x="278" y="1030" type="line" smooth="yes"/>
      <point x="278" y="1285"/>
      <point x="307" y="1384"/>
      <point x="416" y="1385" type="curve"/>
      <point x="542" y="1385"/>
      <point x="565" y="1279"/>
      <point x="565" y="1037" type="curve" smooth="yes"/>
      <point x="565" y="434" type="line" smooth="yes"/>
      <point x="565" y="142"/>
      <point x="503" y="114"/>
    </contour>
  </outline>
</glyph>
<glyph name="f" format="1">
  <advance width="608"/>
  <unicode hex="0066"/>
  <outline>
    <contour>
      <point x="219" y="0" type="line"/>
      <point x="369" y="0" type="line"/>
      <point x="369" y="1329" type="line"/>
      <point x="568" y="1329" type="line"/>
      <point x="568" y="1442" type="line"/>
      <point x="369" y="1442" type="line"/>
      <point x="369" y="1534" type="line" smooth="yes"/>
      <point x="369" y="1606"/>
      <point x="376" y="1657"/>
      <point x="487" y="1657" type="curve" smooth="yes"/>
      <point x="509" y="1657"/>
      <point x="536" y="1655"/>
      <point x="568" y="1650" type="curve"/>
      <point x="568" y="1771" type="line"/>
      <point x="565" y="1772"/>
      <point x="505" y="1789"/>
      <point x="433" y="1789" type="curve" smooth="yes"/>
      <point x="272" y="1789"/>
      <point x="219" y="1688"/>
      <point x="219" y="1512" type="curve" smooth="yes"/>
      <point x="219" y="1442" type="line"/>
      <point x="79" y="1442" type="line"/>
      <point x="79" y="1329" type="line"/>
      <point x="219" y="1329" type="line"/>
    </contour>
  </outline>
</glyph>
<glyph name="i" format="1">
  <advance width="460"/>
  <unicode hex="0069"/>
  <outline>
    <contour>
      <point x="159" y="0" type="line"/>
      <point x="309" y="0" type="line"/>
      <point x="309" y="1500" type="line"/>
      <point x="159" y="1500" type="line"/>
    </contour>
    <contour>
      <point x="159" y="1638" type="line"/>
      <point x="308" y="1638" type="line"/>
      <point x="308" y="1782" type="line"/>
      <point x="159" y="1782" type="line"/>
    </contour>
  </outline>
</glyph>
<glyph name="r" format="1">
  <advance width="605"/>
  <unicode hex="0072"/>
  <outline>
    <contour>
      <point x="160" y="0" type="line"/>
      <point x="309" y="0" type="line"/>
      <point x="309" y="1246" type="line"/>
      <point x="390" y="1361"/>
      <point x="468" y="1391"/>
      <point x="567" y="1391" type="curve"/>
      <point x="567" y="1391"/>
      <point x="569" y="1518"/>
      <point x="564" y="1518" type="curve" smooth="yes"/>
      <point x="431" y="1518"/>
      <point x="343" y="1449"/>
      <point x="309" y="1333" type="curve"/>
      <point x="309" y="1500" type="line"/>
      <point x="160" y="1500" type="line"/>
    </contour>
  </outline>
</glyph>
<glyph name="s" format="1">
  <advance width="744"/>
  <unicode hex="0073"/>
  <outline>
    <contour>
      <point x="406" y="-20" type="curve" smooth="yes"/>
      <point x="598" y="-20"/>
      <point x="683" y="121"/>
      <point x="683" y="325" type="curve" smooth="yes"/>
      <point x="683" y="485"/>
      <point x="632" y="623"/>
      <point x="491" y="761" type="curve" smooth="yes"/>
      <point x="386" y="864" type="line" smooth="yes"/>
      <point x="263" y="986"/>
      <point x="243" y="1057"/>
      <point x="243" y="1150" type="curve" smooth="yes"/>
      <point x="243" y="1286"/>
      <point x="276" y="1381"/>
      <point x="378" y="1381" type="curve" smooth="yes"/>
      <point x="471" y="1381"/>
      <point x="513" y="1288"/>
      <point x="513" y="1078" type="curve" smooth="yes"/>
      <point x="513" y="957" type="line"/>
      <point x="653" y="957" type="line"/>
      <point x="653" y="1051" type="line" smooth="yes"/>
      <point x="653" y="1407"/>
      <point x="543" y="1518"/>
      <point x="375" y="1518" type="curve" smooth="yes"/>
      <point x="207" y="1518"/>
      <point x="93" y="1410"/>
      <point x="93" y="1186" type="curve" smooth="yes"/>
      <point x="93" y="1035"/>
      <point x="140" y="904"/>
      <point x="277" y="775" type="curve" smooth="yes"/>
      <point x="388" y="670" type="line" smooth="yes"/>
      <point x="522" y="543"/>
      <point x="529" y="446"/>
      <point x="529" y="334" type="curve" smooth="yes"/>
      <point x="529" y="168"/>
      <point x="490" y="116"/>
      <point x="393" y="116" type="curve" smooth="yes"/>
      <point x="298" y="116"/>
      <point x="251" y="230"/>
      <point x="251" y="433" type="curve" smooth="yes"/>
      <point x="251" y="536" type="line"/>
      <point x="102" y="536" type="line"/>
      <point x="102" y="407" type="line" smooth="yes"/>
      <point x="102" y="108"/>
      <point x="197" y="-20"/>
    </contour>
  </outline>
</glyph>
<glyph name="t" format="1">
  <advance width="585"/>
  <unicode hex="0074"/>
  <outline>
    <contour>
      <point x="423" y="-9" type="curve" smooth="yes"/>
      <point x="527" y="-9" type="line"/>
      <point x="527" y="118" type="line"/>
      <point x="361" y="118"/>
      <point x="351" y="129"/>
      <point x="351" y="209" type="curve" smooth="yes"/>
      <point x="351" y="1384" type="line"/>
      <point x="528" y="1384" type="line"/>
      <point x="528" y="1500" type="line"/>
      <point x="351" y="1500" type="line"/>
      <point x="351" y="1760" type="line"/>
      <point x="201" y="1760" type="line"/>
      <point x="201" y="1500" type="line"/>
      <point x="51" y="1500" type="line"/>
      <point x="51" y="1384" type="line"/>
      <point x="201" y="1384" type="line"/>
      <point x="201" y="217" type="line" smooth="yes"/>
      <point x="201" y="48"/>
      <point x="230" y="-9"/>
    </contour>
  </outline>
</glyph>
<glyph name="u" format="1">
  <advance width="914"/>
  <unicode hex="0075"/>
  <outline>
    <contour>
      <point x="385" y="-20" type="curve" smooth="yes"/>
      <point x="501" y="-20"/>
      <point x="588" y="65"/>
      <point x="612" y="150" type="curve"/>
      <point x="612" y="0" type="line"/>
      <point x="761" y="0" type="line"/>
      <point x="761" y="1500" type="line"/>
      <point x="610" y="1500" type="line"/>
      <point x="612" y="303" type="line" smooth="yes"/>
      <point x="612" y="190"/>
      <point x="549" y="119"/>
      <point x="444" y="119" type="curve" smooth="yes"/>
      <point x="354" y="119"/>
      <point x="297" y="174"/>
      <point x="297" y="292" type="curve" smooth="yes"/>
      <point x="297" y="1500" type="line"/>
      <point x="148" y="1500" type="line"/>
      <point x="148" y="285" type="line" smooth="yes"/>
      <point x="148" y="47"/>
      <point x="290" y="-20"/>
    </contour>
  </outline>
</glyph>
<glyph name="w" format="1">
  <advance width="1080"/>
  <unicode hex="0077"/>
  <outline>
    <contour>
      <point x="236" y="0" type="line"/>
      <point x="378" y="0" type="line"/>
      <point x="551" y="1283" type="line"/>
      <point x="698" y="0" type="line"/>
      <point x="846" y="0" type="line"/>
      <point x="1020" y="1500" type="line"/>
      <point x="888" y="1500" type="line"/>
      <point x="813" y="648" type="line"/>
      <point x="793" y="302" type="line"/>
      <point x="783" y="302" type="line"/>
      <point x="743" y="646" type="line"/>
      <point x="606" y="1500" type="line"/>
      <point x="580" y="1500" type="line"/>
      <point x="526" y="1500" type="line"/>
      <point x="479" y="1500" type="line"/>
      <point x="353" y="614" type="line"/>
      <point x="323" y="302" type="line"/>
      <point x="311" y="302" type="line"/>
      <point x="287" y="613" type="line"/>
      <point x="197" y="1500" type="line"/>
      <point x="60" y="1500" type="line"/>
    </contour>
  </outline>
</glyph>
<glyph name="x" format="1">
  <advance width="668"/>
  <unicode hex="0078"/>
  <outline>
    <contour>
      <point x="33" y="0" type="line"/>
      <point x="165" y="0" type="line"/>
      <point x="326" y="574" type="line"/>
      <point x="497" y="0" type="line"/>
      <point x="636" y="0" type="line"/>
      <point x="400" y="779" type="line"/>
      <point x="632" y="1500" type="line"/>
      <point x="490" y="1500" type="line"/>
      <point x="341" y="973" type="line"/>
      <point x="181" y="1500" type="line"/>
      <point x="51" y="1500" type="line"/>
      <point x="270" y="762" type="line"/>
    </contour>
  </outline>
</glyph>
<glyph name="y" format="1">
  <advance width="745"/>
  <unicode hex="0079"/>
  <outline>
    <contour>
      <point x="133" y="-238" type="line"/>
      <point x="257" y="-238" type="line" smooth="yes"/>
      <point x="411" y="-238"/>
      <point x="426" y="-178"/>
      <point x="454" y="3" type="curve" smooth="yes"/>
      <point x="693" y="1500" type="line"/>
      <point x="544" y="1500" type="line"/>
      <point x="437" y="707" type="line"/>
      <point x="394" y="299" type="line"/>
      <point x="381" y="299" type="line"/>
      <point x="333" y="707" type="line"/>
      <point x="214" y="1500" type="line"/>
      <point x="64" y="1500" type="line"/>
      <point x="314" y="38" type="line" smooth="yes"/>
      <point x="324" y="-26"/>
      <point x="333" y="-76"/>
      <point x="311" y="-99" type="curve"/>
      <point x="299" y="-107"/>
      <point x="244" y="-110"/>
      <point x="188" y="-110" type="curve" smooth="yes"/>
      <point x="133" y="-110" type="line"/>
    </contour>
  </outline>
</glyph>
<glyph name="z" format="1">
  <advance width="621"/>
  <unicode hex="007A"/>
  <outline>
    <contour>
      <point x="80" y="0" type="line"/>
      <point x="548" y="0" type="line"/>
      <point x="548" y="130" type="line"/>
      <point x="234" y="130" type="line"/>
      <point x="568" y="1407" type="line"/>
      <point x="568" y="1500" type="line"/>
      <point x="105" y="1500" type="line"/>
      <point x="105" y="1371" type="line"/>
      <point x="409" y="1371" type="line"/>
      <point x="80" y="108" type="line"/>
    </contour>
  </outline>
</glyph>
<glyph name="bar" format="1">
  <advance width="481"/>
  <unicode hex="007C"/>
  <outline>
    <contour>
      <point x="166" y="-134" type="line"/>
      <point x="315" y="-134" type="line"/>
      <point x="315" y="1782" type="line"/>
      <point x="166" y="1782" type="line"/>
    </contour>
  </outline>
</glyph>
<glyph name="asciitilde" format="1">
  <advance width="1049"/>
  <unicode hex="007E"/>
  <outline>
    <contour>
      <point x="229" y="840" type="line"/>
      <point x="245" y="921"/>
      <point x="264" y="974"/>
      <point x="317" y="970" type="curve" smooth="yes"/>
      <point x="383" y="965"/>
      <point x="648" y="853"/>
      <point x="762" y="853" type="curve" smooth="yes"/>
      <point x="860" y="853"/>
      <point x="921" y="926"/>
      <point x="938" y="1123" type="curve"/>
      <point x="815" y="1140" type="line"/>
      <point x="804" y="1019"/>
      <point x="786" y="986"/>
      <point x="740" y="986" type="curve" smooth="yes"/>
      <point x="676" y="986"/>
      <point x="399" y="1101"/>
      <point x="295" y="1101" type="curve" smooth="yes"/>
      <point x="207" y="1101"/>
      <point x="142" y="1041"/>
      <point x="111" y="875" type="curve"/>
    </contour>
  </outline>
</glyph>
<glyph name="sterling" format="1">
  <advance width="830"/>
  <unicode hex="00A3"/>
  <outline>
    <contour>
      <point x="118" y="0" type="line"/>
      <point x="778" y="0" type="line"/>
      <point x="778" y="110" type="line"/>
      <point x="329" y="110" type="line"/>
      <point x="471" y="188"/>
      <point x="505" y="311"/>
      <point x="448" y="643" type="curve" smooth="yes"/>
      <point x="418" y="817" type="line"/>
      <point x="700" y="817" type="line"/>
      <point x="700" y="920" type="line"/>
      <point x="398" y="920" type="line"/>
      <point x="361" y="1120" type="line" smooth="yes"/>
      <point x="342" y="1226"/>
      <point x="326" y="1347"/>
      <point x="326" y="1409" type="curve" smooth="yes"/>
      <point x="326" y="1615"/>
      <point x="388" y="1658"/>
      <point x="483" y="1658" type="curve" smooth="yes"/>
      <point x="575" y="1658"/>
      <point x="627" y="1625"/>
      <point x="627" y="1404" type="curve" smooth="yes"/>
      <point x="627" y="1246" type="line"/>
      <point x="756" y="1246" type="line"/>
      <point x="756" y="1392" type="line" smooth="yes"/>
      <point x="756" y="1721"/>
      <point x="628" y="1783"/>
      <point x="475" y="1783" type="curve" smooth="yes"/>
      <point x="267" y="1783"/>
      <point x="182" y="1643"/>
      <point x="182" y="1386" type="curve" smooth="yes"/>
      <point x="182" y="1317"/>
      <point x="200" y="1196"/>
      <point x="220" y="1097" type="curve" smooth="yes"/>
      <point x="256" y="920" type="line"/>
      <point x="88" y="920" type="line"/>
      <point x="88" y="817" type="line"/>
      <point x="275" y="817" type="line"/>
      <point x="305" y="647" type="line" smooth="yes"/>
      <point x="362" y="325"/>
      <point x="337" y="221"/>
      <point x="118" y="86" type="curve"/>
    </contour>
  </outline>
</glyph>
<glyph name="yen" format="1">
  <advance width="786"/>
  <unicode hex="00A5"/>
  <outline>
    <contour>
      <point x="77" y="462" type="line"/>
      <point x="753" y="462" type="line"/>
      <point x="753" y="544" type="line"/>
      <point x="465" y="544" type="line"/>
      <point x="465" y="741" type="line"/>
      <point x="753" y="741" type="line"/>
      <point x="753" y="824" type="line"/>
      <point x="77" y="824" type="line"/>
      <point x="77" y="741" type="line"/>
      <point x="412" y="741" type="line"/>
      <point x="412" y="544" type="line"/>
      <point x="77" y="544" type="line"/>
    </contour>
    <component base="Y"/>
  </outline>
</glyph>
<glyph name="brokenbar" format="1">
  <advance width="480"/>
  <unicode hex="00A6"/>
  <outline>
    <contour>
      <point x="166" y="-84" type="line"/>
      <point x="314" y="-84" type="line"/>
      <point x="314" y="724" type="line"/>
      <point x="166" y="724" type="line"/>
    </contour>
    <contour>
      <point x="166" y="931" type="line"/>
      <point x="314" y="931" type="line"/>
      <point x="314" y="1761" type="line"/>
      <point x="166" y="1761" type="line"/>
    </contour>
  </outline>
</glyph>
<glyph name="section" format="1">
  <advance width="764"/>
  <unicode hex="00A7"/>
  <outline>
    <contour>
      <point x="419" y="-20" type="curve" smooth="yes"/>
      <point x="621" y="-22"/>
      <point x="716" y="121"/>
      <point x="696" y="325" type="curve" smooth="yes"/>
      <point x="688" y="409"/>
      <point x="654" y="520"/>
      <point x="591" y="600" type="curve"/>
      <point x="616" y="658"/>
      <point x="637" y="713"/>
      <point x="637" y="766" type="curve" smooth="yes"/>
      <point x="637.0" y="889.698687017"/>
      <point x="582.295663966" y="977.09823517"/>
      <point x="515.657343654" y="1060.36779792" type="curve" smooth="yes"/>
      <point x="489.097993951" y="1093.5556908"/>
      <point x="460.642932713" y="1126.08753616"/>
      <point x="433" y="1160" type="curve" smooth="yes"/>
      <point x="304" y="1318"/>
      <point x="261" y="1359"/>
      <point x="263" y="1502" type="curve" smooth="yes"/>
      <point x="265" y="1641"/>
      <point x="343" y="1658"/>
      <point x="415" y="1658" type="curve" smooth="yes"/>
      <point x="526" y="1658"/>
      <point x="547" y="1535"/>
      <point x="547" y="1327" type="curve" smooth="yes"/>
      <point x="547" y="1220" type="line"/>
      <point x="680" y="1220" type="line"/>
      <point x="680" y="1360" type="line" smooth="yes"/>
      <point x="680" y="1656"/>
      <point x="611" y="1782"/>
      <point x="407" y="1782" type="curve" smooth="yes"/>
      <point x="233" y="1782"/>
      <point x="118" y="1696"/>
      <point x="127" y="1475" type="curve" smooth="yes"/>
      <point x="130" y="1399"/>
      <point x="152" y="1328"/>
      <point x="208" y="1236" type="curve"/>
      <point x="131" y="1163"/>
      <point x="126" y="1077"/>
      <point x="126" y="1015" type="curve" smooth="yes"/>
      <point x="126.0" y="923.956184685"/>
      <point x="181.916809741" y="846.06926578"/>
      <point x="253.806053239" y="769.312979548" type="curve" smooth="yes"/>
      <point x="281.013052883" y="740.264012684"/>
      <point x="310.507781491" y="711.376986146"/>
      <point x="340.125" y="682.0" type="curve" smooth="yes"/>
      <point x="448.0" y="575.0"/>
      <point x="557.5" y="461.5"/>
      <point x="564" y="310" type="curve" smooth="yes"/>
      <point x="571" y="139"/>
      <point x="496" y="94"/>
      <point x="397" y="104" type="curve" smooth="yes"/>
      <point x="302" y="114"/>
      <point x="266" y="206"/>
      <point x="266" y="409" type="curve" smooth="yes"/>
      <point x="266" y="526" type="line"/>
      <point x="129" y="526" type="line"/>
      <point x="129" y="397" type="line" smooth="yes"/>
      <point x="129" y="98"/>
      <point x="210" y="-18"/>
    </contour>
    <contour>
      <point x="512" y="681" type="curve"/>
      <point x="392" y="811"/>
      <point x="247" y="918"/>
      <point x="241" y="1040" type="curve" smooth="yes"/>
      <point x="239" y="1082"/>
      <point x="243" y="1113"/>
      <point x="270" y="1152" type="curve"/>
      <point x="453" y="926"/>
      <point x="519" y="888"/>
      <point x="519" y="759" type="curve"/>
      <point x="518" y="757"/>
      <point x="517" y="697"/>
    </contour>
  </outline>
</glyph>
<glyph name="copyright" format="1">
  <advance width="1466"/>
  <unicode hex="00A9"/>
  <outline>
    <contour>
      <point x="736" y="393" type="curve" smooth="yes"/>
      <point x="898" y="393"/>
      <point x="951" y="477"/>
      <point x="951" y="627" type="curve" smooth="yes"/>
      <point x="951" y="741" type="line"/>
      <point x="850" y="741" type="line"/>
      <point x="850" y="629" type="line" smooth="yes"/>
      <point x="850" y="523"/>
      <point x="825" y="480"/>
      <point x="734" y="480" type="curve" smooth="yes"/>
      <point x="646" y="480"/>
      <point x="616" y="536"/>
      <point x="616" y="629" type="curve" smooth="yes"/>
      <point x="616" y="1057" type="line" smooth="yes"/>
      <point x="616" y="1148"/>
      <point x="637" y="1205"/>
      <point x="734" y="1205" type="curve" smooth="yes"/>
      <point x="825" y="1205"/>
      <point x="850" y="1158"/>
      <point x="850" y="1044" type="curve" smooth="yes"/>
      <point x="850" y="961" type="line"/>
      <point x="947" y="961" type="line"/>
      <point x="947" y="1097" type="line" smooth="yes"/>
      <point x="947" y="1225"/>
      <point x="874" y="1299"/>
      <point x="740" y="1299" type="curve" smooth="yes"/>
      <point x="575" y="1299"/>
      <point x="509" y="1209"/>
      <point x="509" y="1036" type="curve" smooth="yes"/>
      <point x="509" y="624" type="line" smooth="yes"/>
      <point x="509" y="463"/>
      <point x="597" y="393"/>
    </contour>
    <contour>
      <point x="733" y="236" type="curve" smooth="yes"/>
      <point x="407" y="236"/>
      <point x="177" y="505"/>
      <point x="177" y="844" type="curve" smooth="yes"/>
      <point x="177" y="1182"/>
      <point x="407" y="1451"/>
      <point x="733" y="1451" type="curve" smooth="yes"/>
      <point x="1059" y="1451"/>
      <point x="1289" y="1182"/>
      <point x="1289" y="844" type="curve" smooth="yes"/>
      <point x="1289" y="505"/>
      <point x="1059" y="236"/>
    </contour>
    <contour>
      <point x="733" y="168" type="curve" smooth="yes"/>
      <point x="1106" y="168"/>
      <point x="1362" y="460"/>
      <point x="1362" y="844" type="curve" smooth="yes"/>
      <point x="1362" y="1227"/>
      <point x="1106" y="1519"/>
      <point x="733" y="1519" type="curve" smooth="yes"/>
      <point x="360" y="1519"/>
      <point x="104" y="1227"/>
      <point x="104" y="844" type="curve" smooth="yes"/>
      <point x="104" y="460"/>
      <point x="360" y="168"/>
    </contour>
  </outline>
</glyph>
<glyph name="guillemotleft" format="1">
  <advance width="1304"/>
  <unicode hex="00AB"/>
  <outline>
    <contour>
      <point x="542" y="414" type="line"/>
      <point x="542" y="574" type="line"/>
      <point x="230" y="749" type="line"/>
      <point x="542" y="915" type="line"/>
      <point x="542" y="1065" type="line"/>
      <point x="76" y="794" type="line"/>
      <point x="76" y="699" type="line"/>
    </contour>
    <contour>
      <point x="1065" y="414" type="line"/>
      <point x="1065" y="574" type="line"/>
      <point x="753" y="749" type="line"/>
      <point x="1065" y="915" type="line"/>
      <point x="1065" y="1065" type="line"/>
      <point x="599" y="794" type="line"/>
      <point x="599" y="699" type="line"/>
    </contour>
  </outline>
</glyph>
<glyph name="logicalnot" format="1">
  <advance width="947"/>
  <unicode hex="00AC"/>
  <outline>
    <contour>
      <point x="701" y="439" type="line"/>
      <point x="826" y="439" type="line"/>
      <point x="826" y="858" type="line"/>
      <point x="97" y="858" type="line"/>
      <point x="97" y="743" type="line"/>
      <point x="701" y="743" type="line"/>
    </contour>
  </outline>
</glyph>
<glyph name="uni00AD" format="1">
  <advance width="696"/>
  <unicode hex="00AD"/>
  <outline>
    <contour>
      <point x="90" y="626" type="line"/>
      <point x="606" y="626" type="line"/>
      <point x="606" y="741" type="line"/>
      <point x="90" y="741" type="line"/>
    </contour>
  </outline>
</glyph>
<glyph name="registered" format="1">
  <advance width="1502"/>
  <unicode hex="00AE"/>
  <outline>
    <contour>
      <point x="527" y="446" type="line"/>
      <point x="647" y="446" type="line"/>
      <point x="647" y="864" type="line"/>
      <point x="767" y="864"/>
      <point x="849" y="888"/>
      <point x="849" y="748" type="curve" smooth="yes"/>
      <point x="849" y="446" type="line"/>
      <point x="967" y="446" type="line"/>
      <point x="967" y="787" type="line" smooth="yes"/>
      <point x="967" y="858"/>
      <point x="911" y="900"/>
      <point x="858" y="910" type="curve"/>
      <point x="930" y="933"/>
      <point x="981" y="983"/>
      <point x="981" y="1075" type="curve" smooth="yes"/>
      <point x="981" y="1080.85"/>
      <point x="980.882" y="1086.57"/>
      <point x="980.648" y="1092.15" type="curve" smooth="yes"/>
      <point x="974.212" y="1245.86"/>
      <point x="879.919" y="1298"/>
      <point x="740" y="1298" type="curve" smooth="yes"/>
      <point x="527" y="1298" type="line"/>
    </contour>
    <contour>
      <point x="733" y="271" type="curve" smooth="yes"/>
      <point x="407" y="271"/>
      <point x="157" y="533"/>
      <point x="157" y="862" type="curve" smooth="yes"/>
      <point x="157" y="1191"/>
      <point x="407" y="1453"/>
      <point x="733" y="1453" type="curve" smooth="yes"/>
      <point x="1059" y="1453"/>
      <point x="1309" y="1191"/>
      <point x="1309" y="862" type="curve" smooth="yes"/>
      <point x="1309" y="533"/>
      <point x="1059" y="271"/>
    </contour>
    <contour>
      <point x="733" y="205" type="curve" smooth="yes"/>
      <point x="1106" y="205"/>
      <point x="1390" y="489"/>
      <point x="1390" y="862" type="curve" smooth="yes"/>
      <point x="1390" y="1235"/>
      <point x="1106" y="1519"/>
      <point x="733" y="1519" type="curve" smooth="yes"/>
      <point x="360" y="1519"/>
      <point x="76" y="1235"/>
      <point x="76" y="862" type="curve" smooth="yes"/>
      <point x="76" y="489"/>
      <point x="360" y="205"/>
    </contour>
    <contour>
      <point x="648" y="951" type="line"/>
      <point x="648" y="1210" type="line"/>
      <point x="818" y="1210"/>
      <point x="863" y="1187"/>
      <point x="863" y="1076" type="curve" smooth="yes"/>
      <point x="863" y="994"/>
      <point x="811" y="951"/>
      <point x="726" y="951" type="curve" smooth="yes"/>
    </contour>
  </outline>
</glyph>
<glyph name="degree" format="1">
  <advance width="863"/>
  <unicode hex="00B0"/>
  <outline>
    <contour>
      <point x="432" y="1201" type="curve" smooth="yes"/>
      <point x="317" y="1201"/>
      <point x="201" y="1281"/>
      <point x="201" y="1448" type="curve" smooth="yes"/>
      <point x="201" y="1615"/>
      <point x="316" y="1695"/>
      <point x="432" y="1695" type="curve" smooth="yes"/>
      <point x="547" y="1695"/>
      <point x="663" y="1615"/>
      <point x="663" y="1448" type="curve" smooth="yes"/>
      <point x="663" y="1281"/>
      <point x="548" y="1201"/>
    </contour>
    <contour>
      <point x="431" y="1114" type="curve" smooth="yes"/>
      <point x="603" y="1114"/>
      <point x="775" y="1226"/>
      <point x="775" y="1448" type="curve" smooth="yes"/>
      <point x="775" y="1671"/>
      <point x="603" y="1783"/>
      <point x="431" y="1783" type="curve" smooth="yes"/>
      <point x="260" y="1783"/>
      <point x="88" y="1671"/>
      <point x="88" y="1448" type="curve" smooth="yes"/>
      <point x="88" y="1225"/>
      <point x="259" y="1114"/>
    </contour>
  </outline>
</glyph>
<glyph name="uni00B3" format="1">
  <advance width="880"/>
  <unicode hex="00B3"/>
  <outline>
    <contour>
      <point x="438" y="542" type="curve" smooth="yes"/>
      <point x="586" y="542"/>
      <point x="651" y="649"/>
      <point x="651" y="876" type="curve" smooth="yes"/>
      <point x="651" y="1008"/>
      <point x="614" y="1143"/>
      <point x="530" y="1181" type="curve"/>
      <point x="616" y="1214"/>
      <point x="649" y="1322"/>
      <point x="649" y="1460" type="curve" smooth="yes"/>
      <point x="649" y="1667"/>
      <point x="589" y="1775"/>
      <point x="438" y="1775" type="curve" smooth="yes"/>
      <point x="287" y="1775"/>
      <point x="237" y="1666"/>
      <point x="237" y="1460" type="curve" smooth="yes"/>
      <point x="237" y="1437" type="line"/>
      <point x="337" y="1437" type="line"/>
      <point x="337" y="1459" type="line" smooth="yes"/>
      <point x="337" y="1650"/>
      <point x="377" y="1689"/>
      <point x="436" y="1689" type="curve" smooth="yes"/>
      <point x="499" y="1689"/>
      <point x="550" y="1659"/>
      <point x="550" y="1462" type="curve" smooth="yes"/>
      <point x="550" y="1251"/>
      <point x="507" y="1226"/>
      <point x="408" y="1227" type="curve"/>
      <point x="379" y="1227" type="line"/>
      <point x="379" y="1140" type="line"/>
      <point x="410" y="1140" type="line" smooth="yes"/>
      <point x="510" y="1140"/>
      <point x="553" y="1085"/>
      <point x="553" y="878" type="curve" smooth="yes"/>
      <point x="553" y="691"/>
      <point x="527" y="626"/>
      <point x="438" y="626" type="curve" smooth="yes"/>
      <point x="347" y="626"/>
      <point x="333" y="682"/>
      <point x="333" y="879" type="curve" smooth="yes"/>
      <point x="333" y="909" type="line"/>
      <point x="233" y="909" type="line"/>
      <point x="233" y="880" type="line" smooth="yes"/>
      <point x="233" y="652"/>
      <point x="287" y="542"/>
    </contour>
  </outline>
</glyph>
<glyph name="acute" format="1">
  <advance width="650"/>
  <unicode hex="00B4"/>
  <outline>
    <contour>
      <point x="186" y="1834" type="line"/>
      <point x="254" y="1834" type="line"/>
      <point x="412" y="2232" type="line"/>
      <point x="268" y="2232" type="line"/>
    </contour>
  </outline>
</glyph>
<glyph name="paragraph" format="1">
  <advance width="989"/>
  <unicode hex="00B6"/>
  <outline>
    <contour>
      <point x="430" y="0" type="line"/>
      <point x="550" y="0" type="line"/>
      <point x="550" y="1620" type="line"/>
      <point x="703" y="1620" type="line"/>
      <point x="703" y="0" type="line"/>
      <point x="823" y="0" type="line"/>
      <point x="823" y="1760" type="line"/>
      <point x="580" y="1760" type="line" smooth="yes"/>
      <point x="177" y="1760"/>
      <point x="123" y="1612"/>
      <point x="123" y="1454" type="curve" smooth="yes"/>
      <point x="123" y="1327"/>
      <point x="225" y="1203"/>
      <point x="430" y="1180" type="curve"/>
    </contour>
  </outline>
</glyph>
<glyph name="uni00B9" format="1">
  <advance width="626"/>
  <unicode hex="00B9"/>
  <outline>
    <contour>
      <point x="266" y="414" type="line"/>
      <point x="377" y="414" type="line"/>
      <point x="377" y="1760" type="line"/>
      <point x="309" y="1760" type="line"/>
      <point x="263" y="1658"/>
      <point x="182" y="1603"/>
      <point x="103" y="1591" type="curve"/>
      <point x="103" y="1517" type="line"/>
      <point x="158" y="1517"/>
      <point x="232" y="1540"/>
      <point x="266" y="1585" type="curve"/>
    </contour>
  </outline>
</glyph>
<glyph name="onehalf" format="1">
  <advance width="1620"/>
  <unicode hex="00BD"/>
  <outline>
    <contour>
      <point x="1131" y="0" type="line"/>
      <point x="1523" y="0" type="line"/>
      <point x="1523" y="98" type="line"/>
      <point x="1243" y="98" type="line"/>
      <point x="1243" y="98"/>
      <point x="1249" y="198"/>
      <point x="1305" y="315" type="curve"/>
      <point x="1470" y="669" type="line" smooth="yes"/>
      <point x="1520" y="774"/>
      <point x="1543" y="873"/>
      <point x="1543" y="997" type="curve" smooth="yes"/>
      <point x="1543" y="1196"/>
      <point x="1525" y="1372"/>
      <point x="1358" y="1372" type="curve" smooth="yes"/>
      <point x="1134" y="1372"/>
      <point x="1127" y="1196"/>
      <point x="1127" y="904" type="curve" smooth="yes"/>
      <point x="1127" y="821" type="line"/>
      <point x="1244" y="821" type="line"/>
      <point x="1244" y="1001" type="line" smooth="yes"/>
      <point x="1244" y="1238"/>
      <point x="1290" y="1273"/>
      <point x="1341" y="1273" type="curve" smooth="yes"/>
      <point x="1391" y="1273"/>
      <point x="1431" y="1236"/>
      <point x="1431" y="1013" type="curve" smooth="yes"/>
      <point x="1431" y="920"/>
      <point x="1419" y="814"/>
      <point x="1377" y="724" type="curve" smooth="yes"/>
      <point x="1210" y="365" type="line" smooth="yes"/>
      <point x="1152" y="240"/>
      <point x="1131" y="146"/>
      <point x="1131" y="74" type="curve" smooth="yes"/>
    </contour>
    <contour>
      <point x="267" y="424" type="line"/>
      <point x="383" y="424" type="line"/>
      <point x="383" y="1783" type="line"/>
      <point x="312" y="1783" type="line"/>
      <point x="266" y="1680"/>
      <point x="182" y="1625"/>
      <point x="100" y="1612" type="curve"/>
      <point x="100" y="1537" type="line"/>
      <point x="157" y="1537"/>
      <point x="232" y="1560"/>
      <point x="267" y="1605" type="curve"/>
    </contour>
    <contour>
      <point x="489" y="0" type="line"/>
      <point x="607" y="0" type="line"/>
      <point x="1068" y="1783" type="line"/>
      <point x="948" y="1783" type="line"/>
    </contour>
  </outline>
</glyph>
<glyph name="threequarters" format="1">
  <advance width="1555"/>
  <unicode hex="00BE"/>
  <outline>
    <contour>
      <point x="358" y="551" type="curve" smooth="yes"/>
      <point x="513" y="551"/>
      <point x="580" y="660"/>
      <point x="580" y="890" type="curve" smooth="yes"/>
      <point x="580" y="1025"/>
      <point x="542" y="1160"/>
      <point x="456" y="1199" type="curve"/>
      <point x="544" y="1232"/>
      <point x="578" y="1341"/>
      <point x="578" y="1481" type="curve" smooth="yes"/>
      <point x="578" y="1691"/>
      <point x="515" y="1800"/>
      <point x="359" y="1800" type="curve" smooth="yes"/>
      <point x="203" y="1800"/>
      <point x="151" y="1690"/>
      <point x="151" y="1481" type="curve" smooth="yes"/>
      <point x="151" y="1457" type="line"/>
      <point x="256" y="1457" type="line"/>
      <point x="256" y="1480" type="line" smooth="yes"/>
      <point x="256" y="1671"/>
      <point x="296" y="1711"/>
      <point x="357" y="1711" type="curve" smooth="yes"/>
      <point x="421" y="1711"/>
      <point x="473" y="1680"/>
      <point x="473" y="1482" type="curve" smooth="yes"/>
      <point x="473" y="1271"/>
      <point x="430" y="1244"/>
      <point x="329" y="1244" type="curve" smooth="yes"/>
      <point x="298" y="1244" type="line"/>
      <point x="298" y="1157" type="line"/>
      <point x="329" y="1157" type="line" smooth="yes"/>
      <point x="432" y="1157"/>
      <point x="475" y="1100"/>
      <point x="475" y="892" type="curve" smooth="yes"/>
      <point x="475" y="704"/>
      <point x="450" y="638"/>
      <point x="359" y="638" type="curve" smooth="yes"/>
      <point x="267" y="638"/>
      <point x="252" y="694"/>
      <point x="252" y="893" type="curve" smooth="yes"/>
      <point x="252" y="924" type="line"/>
      <point x="147" y="924" type="line"/>
      <point x="147" y="893" type="line" smooth="yes"/>
      <point x="147" y="662"/>
      <point x="202" y="551"/>
    </contour>
    <contour>
      <point x="1269" y="0" type="line"/>
      <point x="1363" y="0" type="line"/>
      <point x="1363" y="244" type="line"/>
      <point x="1472" y="244" type="line"/>
      <point x="1472" y="326" type="line"/>
      <point x="1363" y="326" type="line"/>
      <point x="1363" y="1224" type="line"/>
      <point x="1268" y="1224" type="line"/>
      <point x="990" y="314" type="line"/>
      <point x="995" y="244" type="line"/>
      <point x="1269" y="244" type="line"/>
    </contour>
    <contour>
      <point x="568" y="0" type="line"/>
      <point x="686" y="0" type="line"/>
      <point x="1147" y="1782" type="line"/>
      <point x="1027" y="1782" type="line"/>
    </contour>
    <contour>
      <point x="1086" y="326" type="line"/>
      <point x="1269" y="989" type="line"/>
      <point x="1269" y="326" type="line"/>
    </contour>
  </outline>
</glyph>
<glyph name="AE" format="1">
  <advance width="1074"/>
  <unicode hex="00C6"/>
  <outline>
    <contour>
      <point x="43" y="0" type="line"/>
      <point x="183" y="0" type="line"/>
      <point x="259" y="370" type="line"/>
      <point x="551" y="370" type="line"/>
      <point x="551" y="0" type="line"/>
      <point x="986" y="0" type="line"/>
      <point x="986" y="118" type="line"/>
      <point x="684" y="118" type="line"/>
      <point x="684" y="836" type="line"/>
      <point x="970" y="836" type="line"/>
      <point x="970" y="956" type="line"/>
      <point x="684" y="956" type="line"/>
      <point x="684" y="1644" type="line"/>
      <point x="989" y="1644" type="line"/>
      <point x="989" y="1760" type="line"/>
      <point x="433" y="1760" type="line"/>
    </contour>
    <contour>
      <point x="288" y="483" type="line"/>
      <point x="533" y="1645" type="line"/>
      <point x="551" y="1646" type="line"/>
      <point x="551" y="483" type="line"/>
    </contour>
  </outline>
</glyph>
<glyph name="multiply" format="1">
  <advance width="710"/>
  <unicode hex="00D7"/>
  <outline>
    <contour>
      <point x="168" y="394" type="line"/>
      <point x="355" y="582" type="line"/>
      <point x="542" y="394" type="line"/>
      <point x="626" y="478" type="line"/>
      <point x="438" y="665" type="line"/>
      <point x="626" y="852" type="line"/>
      <point x="542" y="936" type="line"/>
      <point x="355" y="748" type="line"/>
      <point x="168" y="936" type="line"/>
      <point x="84" y="852" type="line"/>
      <point x="272" y="665" type="line"/>
      <point x="84" y="478" type="line"/>
    </contour>
  </outline>
</glyph>
<glyph name="Oslash" format="1">
  <advance width="891"/>
  <unicode hex="00D8"/>
  <outline>
    <component base="O"/>
    <contour>
      <point x="256" y="-225" type="line"/>
      <point x="733" y="1941" type="line"/>
      <point x="666" y="1956" type="line"/>
      <point x="197" y="-206" type="line"/>
    </contour>
  </outline>
</glyph>
<glyph name="Thorn" format="1">
  <advance width="865"/>
  <unicode hex="00DE"/>
  <outline>
    <contour>
      <point x="166" y="0" type="line"/>
      <point x="315" y="0" type="line"/>
      <point x="315" y="468" type="line"/>
      <point x="463" y="468" type="line" smooth="yes"/>
      <point x="718" y="468"/>
      <point x="777" y="640"/>
      <point x="777" y="1007" type="curve" smooth="yes"/>
      <point x="777" y="1027" type="line"/>
      <point x="778" y="1325"/>
      <point x="754" y="1535"/>
      <point x="472" y="1535" type="curve" smooth="yes"/>
      <point x="315" y="1535" type="line"/>
      <point x="315" y="1760" type="line"/>
      <point x="166" y="1760" type="line"/>
    </contour>
    <contour>
      <point x="315" y="594" type="line"/>
      <point x="315" y="1411" type="line"/>
      <point x="480" y="1411" type="line" smooth="yes"/>
      <point x="604" y="1411"/>
      <point x="629" y="1298"/>
      <point x="629" y="1042" type="curve" smooth="yes"/>
      <point x="629" y="1006" type="line" smooth="yes"/>
      <point x="629" y="691"/>
      <point x="598" y="594"/>
      <point x="474" y="594" type="curve" smooth="yes"/>
    </contour>
  </outline>
</glyph>
<glyph name="germandbls" format="1">
  <advance width="933"/>
  <unicode hex="00DF"/>
  <outline>
    <contour>
      <point x="157" y="0" type="line"/>
      <point x="304" y="0" type="line"/>
      <point x="304" y="1500" type="line" smooth="yes"/>
      <point x="304" y="1646"/>
      <point x="343" y="1687"/>
      <point x="457" y="1687" type="curve" smooth="yes"/>
      <point x="593" y="1687"/>
      <point x="632" y="1646"/>
      <point x="632" y="1500" type="curve" smooth="yes"/>
      <point x="632" y="1170" type="line" smooth="yes"/>
      <point x="632" y="1042"/>
      <point x="578" y="997"/>
      <point x="427" y="997" type="curve"/>
      <point x="427" y="889" type="line"/>
      <point x="628" y="889"/>
      <point x="687" y="821"/>
      <point x="687" y="656" type="curve" smooth="yes"/>
      <point x="687" y="395" type="line" smooth="yes"/>
      <point x="687" y="155"/>
      <point x="660" y="100"/>
      <point x="418" y="100" type="curve"/>
      <point x="418" y="0" type="line"/>
      <point x="522" y="0" type="line" smooth="yes"/>
      <point x="822" y="0"/>
      <point x="835" y="177"/>
      <point x="835" y="476" type="curve" smooth="yes"/>
      <point x="835" y="553" type="line" smooth="yes"/>
      <point x="835" y="819"/>
      <point x="782" y="903"/>
      <point x="606" y="945" type="curve"/>
      <point x="737" y="988"/>
      <point x="775" y="1047"/>
      <point x="775" y="1220" type="curve" smooth="yes"/>
      <point x="775" y="1417" type="line" smooth="yes"/>
      <point x="775" y="1700"/>
      <point x="712" y="1783"/>
      <point x="444" y="1783" type="curve" smooth="yes"/>
      <point x="161" y="1783"/>
      <point x="157" y="1660"/>
      <point x="157" y="1417" type="curve" smooth="yes"/>
    </contour>
  </outline>
</glyph>
<glyph name="eth" format="1">
  <advance width="910"/>
  <unicode hex="00F0"/>
  <outline>
    <contour>
      <point x="431" y="-20" type="curve" smooth="yes"/>
      <point x="704" y="-20"/>
      <point x="763" y="212"/>
      <point x="763" y="506" type="curve" smooth="yes"/>
      <point x="763" y="958" type="line" smooth="yes"/>
      <point x="763" y="926"/>
      <point x="753" y="1456"/>
      <point x="732" y="1516" type="curve"/>
      <point x="931" y="1635" type="line"/>
      <point x="878" y="1735" type="line"/>
      <point x="678" y="1616" type="line"/>
      <point x="589" y="1732"/>
      <point x="450" y="1783"/>
      <point x="293" y="1780" type="curve"/>
      <point x="293" y="1640" type="line"/>
      <point x="369" y="1644"/>
      <point x="471" y="1619"/>
      <point x="543" y="1534" type="curve"/>
      <point x="318" y="1399" type="line"/>
      <point x="371" y="1299" type="line"/>
      <point x="596" y="1434" type="line"/>
      <point x="608" y="1392"/>
      <point x="616" y="1009"/>
      <point x="616" y="1009" type="curve"/>
      <point x="573" y="1070"/>
      <point x="492" y="1101"/>
      <point x="433" y="1103" type="curve" smooth="yes"/>
      <point x="181" y="1114"/>
      <point x="111" y="959"/>
      <point x="111" y="557" type="curve" smooth="yes"/>
      <point x="111" y="442" type="line" smooth="yes"/>
      <point x="111" y="145"/>
      <point x="177" y="-20"/>
    </contour>
    <contour>
      <point x="431" y="107" type="curve" smooth="yes"/>
      <point x="297" y="107"/>
      <point x="260" y="170"/>
      <point x="260" y="446" type="curve" smooth="yes"/>
      <point x="260" y="545" type="line" smooth="yes"/>
      <point x="260" y="869"/>
      <point x="289" y="978"/>
      <point x="425" y="978" type="curve" smooth="yes"/>
      <point x="519" y="978"/>
      <point x="595" y="930"/>
      <point x="614" y="926" type="curve"/>
      <point x="614" y="505" type="line" smooth="yes"/>
      <point x="614" y="227"/>
      <point x="581" y="107"/>
    </contour>
  </outline>
</glyph>
<glyph name="divide" format="1">
  <advance width="804"/>
  <unicode hex="00F7"/>
  <outline>
    <contour>
      <point x="343" y="327" type="line"/>
      <point x="471" y="327" type="line"/>
      <point x="471" y="535" type="line"/>
      <point x="343" y="535" type="line"/>
    </contour>
    <contour>
      <point x="94" y="708" type="line"/>
      <point x="710" y="708" type="line"/>
      <point x="710" y="823" type="line"/>
      <point x="94" y="823" type="line"/>
    </contour>
    <contour>
      <point x="343" y="976" type="line"/>
      <point x="471" y="976" type="line"/>
      <point x="471" y="1174" type="line"/>
      <point x="343" y="1174" type="line"/>
    </contour>
  </outline>
</glyph>
<glyph name="oslash" format="1">
  <advance width="845"/>
  <unicode hex="00F8"/>
  <outline>
    <contour>
      <point x="284" y="-223" type="line"/>
      <point x="622" y="1738" type="line"/>
      <point x="561" y="1746" type="line"/>
      <point x="223" y="-215" type="line"/>
    </contour>
    <component base="o"/>
  </outline>
</glyph>
<glyph name="thorn" format="1">
  <advance width="875"/>
  <unicode hex="00FE"/>
  <outline>
    <contour>
      <point x="160" y="-265" type="line"/>
      <point x="310" y="-265" type="line"/>
      <point x="310" y="108" type="line"/>
      <point x="336" y="40"/>
      <point x="399" y="-16"/>
      <point x="470" y="-16" type="curve" smooth="yes"/>
      <point x="694" y="-16"/>
      <point x="747" y="194"/>
      <point x="747" y="475" type="curve" smooth="yes"/>
      <point x="747" y="1013" type="line" smooth="yes"/>
      <point x="747" y="1298"/>
      <point x="715" y="1511"/>
      <point x="509" y="1511" type="curve" smooth="yes"/>
      <point x="431" y="1511"/>
      <point x="351" y="1482"/>
      <point x="310" y="1385" type="curve"/>
      <point x="310" y="1782" type="line"/>
      <point x="160" y="1782" type="line"/>
    </contour>
    <contour>
      <point x="461" y="106" type="curve"/>
      <point x="336" y="106"/>
      <point x="310" y="222"/>
      <point x="310" y="463" type="curve" smooth="yes"/>
      <point x="310" y="1059" type="line" smooth="yes"/>
      <point x="310" y="1351"/>
      <point x="370" y="1387"/>
      <point x="468" y="1387" type="curve" smooth="yes"/>
      <point x="586" y="1387"/>
      <point x="597" y="1260"/>
      <point x="597" y="1062" type="curve" smooth="yes"/>
      <point x="597" y="468" type="line" smooth="yes"/>
      <point x="597" y="214"/>
      <point x="571" y="107"/>
    </contour>
  </outline>
</glyph>
<glyph name="dcroat" format="1">
  <advance width="872"/>
  <unicode hex="0111"/>
  <outline>
    <contour>
      <point x="211" y="1601" type="line"/>
      <point x="834" y="1601" type="line"/>
      <point x="834" y="1682" type="line"/>
      <point x="211" y="1682" type="line"/>
    </contour>
    <component base="d"/>
  </outline>
</glyph>
<glyph name="hbar" format="1">
  <advance width="924"/>
  <unicode hex="0127"/>
  <outline>
    <component base="h"/>
    <contour>
      <point x="0" y="1601" type="line"/>
      <point x="623" y="1601" type="line"/>
      <point x="623" y="1682" type="line"/>
      <point x="0" y="1682" type="line"/>
    </contour>
  </outline>
</glyph>
<glyph name="dotlessi" format="1">
  <advance width="474"/>
  <unicode hex="0131"/>
  <outline>
    <contour>
      <point x="162" y="0" type="line"/>
      <point x="312" y="0" type="line"/>
      <point x="312" y="1500" type="line"/>
      <point x="162" y="1500" type="line"/>
    </contour>
  </outline>
</glyph>
<glyph name="kgreenlandic" format="1">
  <advance width="835"/>
  <unicode hex="0138"/>
  <outline>
    <contour>
      <point x="160" y="0" type="line"/>
      <point x="309" y="0" type="line"/>
      <point x="309" y="742" type="line"/>
      <point x="651" y="0" type="line"/>
      <point x="807" y="0" type="line"/>
      <point x="448" y="756" type="line"/>
      <point x="789" y="1500" type="line"/>
      <point x="640" y="1500" type="line"/>
      <point x="309" y="760" type="line"/>
      <point x="309" y="1500" type="line"/>
      <point x="160" y="1500" type="line"/>
    </contour>
  </outline>
</glyph>
<glyph name="Lslash" format="1">
  <advance width="705"/>
  <unicode hex="0141"/>
  <outline>
    <component base="L"/>
    <contour>
      <point x="-1" y="794" type="line"/>
      <point x="497" y="1011" type="line"/>
      <point x="497" y="1133" type="line"/>
      <point x="-1" y="916" type="line"/>
    </contour>
  </outline>
</glyph>
<glyph name="lslash" format="1">
  <advance width="731"/>
  <unicode hex="0142"/>
  <outline>
    <component base="l" xOffset="94"/>
    <contour>
      <point x="99" y="778" type="line"/>
      <point x="610" y="1010" type="line"/>
      <point x="610" y="1153" type="line"/>
      <point x="99" y="921" type="line"/>
    </contour>
  </outline>
</glyph>
<glyph name="OE" format="1">
  <advance width="1168"/>
  <unicode hex="0152"/>
  <outline>
    <contour>
      <point x="446" y="0" type="curve" smooth="yes"/>
      <point x="1080" y="0" type="line"/>
      <point x="1080" y="118" type="line"/>
      <point x="755" y="118" type="line"/>
      <point x="755" y="836" type="line"/>
      <point x="1063" y="836" type="line"/>
      <point x="1063" y="956" type="line"/>
      <point x="755" y="956" type="line"/>
      <point x="755" y="1644" type="line"/>
      <point x="1082" y="1644" type="line"/>
      <point x="1082" y="1760" type="line"/>
      <point x="453" y="1760" type="line" smooth="yes"/>
      <point x="171" y="1760"/>
      <point x="134" y="1572"/>
      <point x="134" y="1269" type="curve" smooth="yes"/>
      <point x="134" y="519" type="line" smooth="yes"/>
      <point x="134" y="151"/>
      <point x="191" y="0"/>
    </contour>
    <contour>
      <point x="446" y="126" type="line"/>
      <point x="312" y="127"/>
      <point x="283" y="195"/>
      <point x="283" y="518" type="curve" smooth="yes"/>
      <point x="283" y="1282" type="line" smooth="yes"/>
      <point x="283" y="1544"/>
      <point x="319" y="1634"/>
      <point x="453" y="1634" type="curve" smooth="yes"/>
      <point x="606" y="1634" type="line"/>
      <point x="606" y="126" type="line"/>
    </contour>
  </outline>
</glyph>
<glyph name="oe" format="1">
  <advance width="1241"/>
  <unicode hex="0153"/>
  <outline>
    <contour>
      <point x="425" y="-18" type="curve" smooth="yes"/>
      <point x="527" y="-18"/>
      <point x="593" y="34"/>
      <point x="636" y="106" type="curve"/>
      <point x="680" y="33"/>
      <point x="748" y="-18"/>
      <point x="859" y="-18" type="curve" smooth="yes"/>
      <point x="1134" y="-18"/>
      <point x="1132" y="202"/>
      <point x="1132" y="505" type="curve" smooth="yes"/>
      <point x="1132" y="556" type="line"/>
      <point x="987" y="556" type="line"/>
      <point x="987" y="439" type="line" smooth="yes"/>
      <point x="987" y="231"/>
      <point x="980" y="113"/>
      <point x="858" y="113" type="curve" smooth="yes"/>
      <point x="727" y="113"/>
      <point x="716" y="220"/>
      <point x="716" y="450" type="curve" smooth="yes"/>
      <point x="716" y="754" type="line"/>
      <point x="1137" y="754" type="line"/>
      <point x="1137" y="1002" type="line" smooth="yes"/>
      <point x="1137" y="1292"/>
      <point x="1133" y="1518"/>
      <point x="864" y="1518" type="curve" smooth="yes"/>
      <point x="757" y="1518"/>
      <point x="688" y="1467"/>
      <point x="643" y="1396" type="curve"/>
      <point x="601" y="1467"/>
      <point x="532" y="1518"/>
      <point x="425" y="1518" type="curve" smooth="yes"/>
      <point x="156" y="1518"/>
      <point x="128" y="1300"/>
      <point x="128" y="1018" type="curve" smooth="yes"/>
      <point x="128" y="515" type="line" smooth="yes"/>
      <point x="128" y="204"/>
      <point x="148" y="-18"/>
    </contour>
    <contour>
      <point x="425" y="113" type="curve" smooth="yes"/>
      <point x="292" y="113"/>
      <point x="277" y="253"/>
      <point x="277" y="463" type="curve" smooth="yes"/>
      <point x="277" y="1053" type="line" smooth="yes"/>
      <point x="277" y="1250"/>
      <point x="291" y="1388"/>
      <point x="425" y="1388" type="curve" smooth="yes"/>
      <point x="550" y="1388"/>
      <point x="567" y="1250"/>
      <point x="567" y="1053" type="curve" smooth="yes"/>
      <point x="567" y="463" type="line" smooth="yes"/>
      <point x="567" y="253"/>
      <point x="550" y="113"/>
    </contour>
    <contour>
      <point x="717" y="874" type="line"/>
      <point x="717" y="1063" type="line" smooth="yes"/>
      <point x="717" y="1259"/>
      <point x="735" y="1387"/>
      <point x="866" y="1387" type="curve" smooth="yes"/>
      <point x="991" y="1387"/>
      <point x="988" y="1273"/>
      <point x="988" y="1068" type="curve" smooth="yes"/>
      <point x="988" y="874" type="line"/>
    </contour>
  </outline>
</glyph>
<glyph name="florin" format="1">
  <advance width="687"/>
  <unicode hex="0192"/>
  <outline>
    <contour>
      <point x="81" y="-150" type="line"/>
      <point x="301" y="-171"/>
      <point x="419" y="-131"/>
      <point x="419" y="63" type="curve" smooth="yes"/>
      <point x="419" y="940" type="line"/>
      <point x="635" y="940" type="line"/>
      <point x="635" y="1044" type="line"/>
      <point x="419" y="1044" type="line"/>
      <point x="419" y="1560" type="line" smooth="yes"/>
      <point x="419" y="1694"/>
      <point x="482" y="1682"/>
      <point x="618" y="1673" type="curve"/>
      <point x="618" y="1776" type="line"/>
      <point x="418" y="1795"/>
      <point x="282" y="1784"/>
      <point x="282" y="1563" type="curve" smooth="yes"/>
      <point x="282" y="1044" type="line"/>
      <point x="77" y="1044" type="line"/>
      <point x="77" y="940" type="line"/>
      <point x="282" y="940" type="line"/>
      <point x="282" y="123" type="line" smooth="yes"/>
      <point x="282" y="-40"/>
      <point x="260" y="-61"/>
      <point x="81" y="-52" type="curve"/>
    </contour>
  </outline>
</glyph>
<glyph name="uni0237" format="1">
  <advance width="479"/>
  <unicode hex="0237"/>
  <outline>
    <contour>
      <point x="202" y="-221" type="curve" smooth="yes"/>
      <point x="234" y="-216"/>
      <point x="325" y="-190"/>
      <point x="325" y="-34" type="curve" smooth="yes"/>
      <point x="325" y="1500" type="line"/>
      <point x="176" y="1500" type="line"/>
      <point x="176" y="-44" type="line" smooth="yes"/>
      <point x="176" y="-81"/>
      <point x="168" y="-106"/>
      <point x="139" y="-111" type="curve"/>
      <point x="109" y="-115"/>
      <point x="68" y="-110"/>
      <point x="68" y="-110" type="curve"/>
      <point x="68" y="-218" type="line"/>
      <point x="70" y="-218"/>
      <point x="133" y="-230"/>
    </contour>
  </outline>
</glyph>
<glyph name="caron" format="1">
  <advance width="970"/>
  <unicode hex="02C7"/>
  <outline>
    <contour>
      <point x="402" y="1577" type="line"/>
      <point x="568" y="1577" type="line"/>
      <point x="688" y="1830" type="line"/>
      <point x="571" y="1830" type="line"/>
      <point x="485" y="1655" type="line"/>
      <point x="399" y="1830" type="line"/>
      <point x="281" y="1830" type="line"/>
    </contour>
  </outline>
</glyph>
<glyph name="uni02C9" format="1">
  <advance width="696"/>
  <unicode hex="02C9"/>
  <outline>
    <contour>
      <point x="90" y="626" type="line"/>
      <point x="606" y="626" type="line"/>
      <point x="606" y="741" type="line"/>
      <point x="90" y="741" type="line"/>
    </contour>
  </outline>
</glyph>
<glyph name="breve" format="1">
  <advance width="1016"/>
  <unicode hex="02D8"/>
  <outline>
    <contour>
      <point x="505" y="1619" type="curve" smooth="yes"/>
      <point x="635" y="1619"/>
      <point x="696" y="1697"/>
      <point x="696" y="1810" type="curve" smooth="yes"/>
      <point x="696" y="1823" type="line"/>
      <point x="632" y="1823" type="line"/>
      <point x="632" y="1728"/>
      <point x="565" y="1710"/>
      <point x="507" y="1710" type="curve" smooth="yes"/>
      <point x="446" y="1710"/>
      <point x="379" y="1732"/>
      <point x="379" y="1823" type="curve"/>
      <point x="315" y="1823" type="line"/>
      <point x="315" y="1808" type="line" smooth="yes"/>
      <point x="315" y="1692"/>
      <point x="381" y="1619"/>
    </contour>
  </outline>
</glyph>
<glyph name="dotaccent" format="1">
  <advance width="572"/>
  <unicode hex="02D9"/>
  <outline>
    <contour>
      <point x="213" y="-55" type="line"/>
      <point x="372" y="-55" type="line"/>
      <point x="372" y="78" type="line"/>
      <point x="213" y="78" type="line"/>
    </contour>
  </outline>
</glyph>
<glyph name="ogonek" format="1">
  <advance width="456"/>
  <unicode hex="02DB"/>
  <outline>
    <contour>
      <point x="259" y="-431" type="curve" smooth="yes"/>
      <point x="323" y="-431"/>
      <point x="380" y="-416"/>
      <point x="390" y="-411" type="curve"/>
      <point x="390" y="-318" type="line"/>
      <point x="389" y="-320"/>
      <point x="329" y="-339"/>
      <point x="271" y="-339" type="curve" smooth="yes"/>
      <point x="216" y="-339"/>
      <point x="163" y="-321"/>
      <point x="163" y="-252" type="curve" smooth="yes"/>
      <point x="163" y="-184"/>
      <point x="206" y="-88"/>
      <point x="309" y="0" type="curve"/>
      <point x="245" y="0" type="line"/>
      <point x="121" y="-92"/>
      <point x="69" y="-199"/>
      <point x="69" y="-285" type="curve" smooth="yes"/>
      <point x="69" y="-403"/>
      <point x="170" y="-431"/>
    </contour>
  </outline>
</glyph>
<glyph name="tilde" format="1">
  <advance width="683"/>
  <unicode hex="02DC"/>
  <outline>
    <contour>
      <point x="483" y="1583" type="curve" smooth="yes"/>
      <point x="547" y="1583"/>
      <point x="583" y="1599"/>
      <point x="624" y="1728" type="curve"/>
      <point x="633" y="1754" type="line"/>
      <point x="528" y="1783" type="line"/>
      <point x="507" y="1723"/>
      <point x="491" y="1714"/>
      <point x="472" y="1711" type="curve"/>
      <point x="468" y="1711" type="line" smooth="yes"/>
      <point x="418" y="1711"/>
      <point x="299" y="1783"/>
      <point x="218" y="1783" type="curve" smooth="yes"/>
      <point x="154" y="1783"/>
      <point x="89" y="1785"/>
      <point x="50" y="1650" type="curve"/>
      <point x="143" y="1604" type="line"/>
      <point x="161" y="1639"/>
      <point x="172" y="1658"/>
      <point x="194" y="1663" type="curve" smooth="yes"/>
      <point x="201" y="1665"/>
      <point x="209" y="1665"/>
      <point x="217" y="1665" type="curve" smooth="yes"/>
      <point x="300" y="1665"/>
      <point x="395" y="1583"/>
    </contour>
  </outline>
</glyph>
<glyph name="hungarumlaut" format="1">
  <advance width="882"/>
  <unicode hex="02DD"/>
  <outline>
    <contour>
      <point x="267" y="1252" type="line"/>
      <point x="479" y="1744" type="line"/>
      <point x="375" y="1783" type="line"/>
      <point x="198" y="1281" type="line"/>
    </contour>
    <contour>
      <point x="517" y="1241" type="line"/>
      <point x="790" y="1733" type="line"/>
      <point x="683" y="1783" type="line"/>
      <point x="449" y="1273" type="line"/>
    </contour>
  </outline>
</glyph>
<glyph name="uni0302" format="1">
  <advance width="616"/>
  <unicode hex="0302"/>
  <outline>
    <contour>
      <point x="111" y="1384" type="line"/>
      <point x="229" y="1384" type="line"/>
      <point x="315" y="1559" type="line"/>
      <point x="401" y="1384" type="line"/>
      <point x="518" y="1384" type="line"/>
      <point x="398" y="1638" type="line"/>
      <point x="232" y="1638" type="line"/>
    </contour>
  </outline>
</glyph>
<glyph name="uni0307" format="1">
  <advance width="572"/>
  <unicode hex="0307"/>
  <outline>
    <contour>
      <point x="215" y="-8" type="line"/>
      <point x="383" y="-8" type="line"/>
      <point x="383" y="310" type="line"/>
      <point x="215" y="310" type="line"/>
    </contour>
  </outline>
</glyph>
<glyph name="dblgravecmb" format="1">
  <advance width="626"/>
  <unicode hex="030F"/>
  <outline>
    <contour>
      <point x="245" y="1411" type="line"/>
      <point x="294" y="1435" type="line"/>
      <point x="194" y="1783" type="line"/>
      <point x="89" y="1726" type="line"/>
    </contour>
    <contour>
      <point x="455" y="1411" type="line"/>
      <point x="504" y="1435" type="line"/>
      <point x="441" y="1783" type="line"/>
      <point x="340" y="1726" type="line"/>
    </contour>
  </outline>
</glyph>
<glyph name="Delta" format="1">
  <advance width="868"/>
  <unicode hex="0394"/>
  <outline>
    <contour>
      <point x="219" y="123" type="line"/>
      <point x="422" y="1476" type="line"/>
      <point x="424" y="1476" type="line"/>
      <point x="644" y="123" type="line"/>
    </contour>
    <contour>
      <point x="60" y="0" type="line"/>
      <point x="808" y="0" type="line"/>
      <point x="495" y="1760" type="line"/>
      <point x="343" y="1760" type="line"/>
    </contour>
  </outline>
</glyph>
<glyph name="quoteleft" format="1">
  <advance width="597"/>
  <unicode hex="2018"/>
  <outline>
    <contour>
      <point x="167" y="1163" type="line"/>
      <point x="438" y="1163" type="line"/>
      <point x="438" y="1365" type="line"/>
      <point x="296" y="1365" type="line"/>
      <point x="387" y="1783" type="line"/>
      <point x="281" y="1783" type="line"/>
      <point x="167" y="1356" type="line"/>
    </contour>
  </outline>
</glyph>
<glyph name="quoteright" format="1">
  <advance width="597"/>
  <unicode hex="2019"/>
  <outline>
    <contour>
      <point x="240" y="1163" type="line"/>
      <point x="346" y="1163" type="line"/>
      <point x="460" y="1589" type="line"/>
      <point x="460" y="1783" type="line"/>
      <point x="189" y="1783" type="line"/>
      <point x="189" y="1580" type="line"/>
      <point x="331" y="1580" type="line"/>
    </contour>
  </outline>
</glyph>
<glyph name="quotedblleft" format="1">
  <advance width="1030"/>
  <unicode hex="201C"/>
  <outline>
    <contour>
      <point x="176" y="1149" type="line"/>
      <point x="451" y="1149" type="line"/>
      <point x="451" y="1355" type="line"/>
      <point x="305" y="1355" type="line"/>
      <point x="399" y="1783" type="line"/>
      <point x="295" y="1783" type="line"/>
      <point x="176" y="1346" type="line"/>
    </contour>
    <contour>
      <point x="623" y="1149" type="line"/>
      <point x="898" y="1149" type="line"/>
      <point x="898" y="1355" type="line"/>
      <point x="752" y="1355" type="line"/>
      <point x="845" y="1783" type="line"/>
      <point x="742" y="1783" type="line"/>
      <point x="623" y="1346" type="line"/>
    </contour>
  </outline>
</glyph>
<glyph name="quotedblbase" format="1">
  <advance width="1016"/>
  <unicode hex="201E"/>
  <outline>
    <contour>
      <point x="233" y="-428" type="line"/>
      <point x="336" y="-428" type="line"/>
      <point x="456" y="9" type="line"/>
      <point x="456" y="206" type="line"/>
      <point x="181" y="206" type="line"/>
      <point x="181" y="0" type="line"/>
      <point x="327" y="0" type="line"/>
    </contour>
    <contour>
      <point x="680" y="-428" type="line"/>
      <point x="783" y="-428" type="line"/>
      <point x="903" y="9" type="line"/>
      <point x="903" y="206" type="line"/>
      <point x="628" y="206" type="line"/>
      <point x="628" y="0" type="line"/>
      <point x="774" y="0" type="line"/>
    </contour>
  </outline>
</glyph>
<glyph name="daggerdbl" format="1">
  <advance width="830"/>
  <unicode hex="2021"/>
  <outline>
    <contour>
      <point x="358" y="0" type="line"/>
      <point x="475" y="0" type="line"/>
      <point x="475" y="506" type="line"/>
      <point x="757" y="506" type="line"/>
      <point x="757" y="612" type="line"/>
      <point x="475" y="612" type="line"/>
      <point x="475" y="1066" type="line"/>
      <point x="757" y="1066" type="line"/>
      <point x="757" y="1172" type="line"/>
      <point x="475" y="1172" type="line"/>
      <point x="475" y="1592" type="line"/>
      <point x="358" y="1592" type="line"/>
      <point x="358" y="1172" type="line"/>
      <point x="73" y="1172" type="line"/>
      <point x="73" y="1066" type="line"/>
      <point x="358" y="1066" type="line"/>
      <point x="358" y="612" type="line"/>
      <point x="73" y="612" type="line"/>
      <point x="73" y="506" type="line"/>
      <point x="358" y="506" type="line"/>
    </contour>
  </outline>
</glyph>
<glyph name="bullet" format="1">
  <advance width="861"/>
  <unicode hex="2022"/>
  <outline>
    <contour>
      <point x="430" y="633" type="curve" smooth="yes"/>
      <point x="565" y="633"/>
      <point x="634" y="710"/>
      <point x="634" y="861" type="curve" smooth="yes"/>
      <point x="634" y="1012"/>
      <point x="565" y="1089"/>
      <point x="430" y="1089" type="curve" smooth="yes"/>
      <point x="296" y="1089"/>
      <point x="227" y="1012"/>
      <point x="227" y="861" type="curve" smooth="yes"/>
      <point x="227" y="710"/>
      <point x="296" y="633"/>
    </contour>
  </outline>
</glyph>
<glyph name="perthousand" format="1">
  <advance width="2930"/>
  <unicode hex="2030"/>
  <outline>
    <contour>
      <point x="439" y="718" type="curve" smooth="yes"/>
      <point x="333" y="718"/>
      <point x="302" y="765"/>
      <point x="302" y="936" type="curve" smooth="yes"/>
      <point x="302" y="1436" type="line" smooth="yes"/>
      <point x="302" y="1601"/>
      <point x="334" y="1646"/>
      <point x="439" y="1646" type="curve" smooth="yes"/>
      <point x="545" y="1646"/>
      <point x="576" y="1601"/>
      <point x="576" y="1436" type="curve" smooth="yes"/>
      <point x="576" y="936" type="line" smooth="yes"/>
      <point x="576" y="765"/>
      <point x="546" y="718"/>
    </contour>
    <contour>
      <point x="439" y="581" type="curve" smooth="yes"/>
      <point x="663" y="581"/>
      <point x="724" y="672"/>
      <point x="724" y="1012" type="curve" smooth="yes"/>
      <point x="724" y="1364" type="line" smooth="yes"/>
      <point x="724" y="1691"/>
      <point x="662" y="1783"/>
      <point x="439" y="1783" type="curve" smooth="yes"/>
      <point x="217" y="1783"/>
      <point x="155" y="1691"/>
      <point x="155" y="1364" type="curve" smooth="yes"/>
      <point x="155" y="1012" type="line" smooth="yes"/>
      <point x="155" y="672"/>
      <point x="216" y="581"/>
    </contour>
    <contour>
      <point x="1683" y="117" type="curve" smooth="yes"/>
      <point x="1577" y="117"/>
      <point x="1546" y="164"/>
      <point x="1546" y="335" type="curve" smooth="yes"/>
      <point x="1546" y="835" type="line" smooth="yes"/>
      <point x="1546" y="1000"/>
      <point x="1577" y="1045"/>
      <point x="1683" y="1045" type="curve" smooth="yes"/>
      <point x="1788" y="1045"/>
      <point x="1820" y="1000"/>
      <point x="1820" y="835" type="curve" smooth="yes"/>
      <point x="1820" y="335" type="line" smooth="yes"/>
      <point x="1820" y="164"/>
      <point x="1789" y="117"/>
    </contour>
    <contour>
      <point x="1683" y="-20" type="curve" smooth="yes"/>
      <point x="1907" y="-20"/>
      <point x="1967" y="71"/>
      <point x="1967" y="411" type="curve" smooth="yes"/>
      <point x="1967" y="763" type="line" smooth="yes"/>
      <point x="1967" y="1090"/>
      <point x="1905" y="1181"/>
      <point x="1683" y="1181" type="curve" smooth="yes"/>
      <point x="1461" y="1181"/>
      <point x="1399" y="1090"/>
      <point x="1399" y="763" type="curve" smooth="yes"/>
      <point x="1399" y="411" type="line" smooth="yes"/>
      <point x="1399" y="71"/>
      <point x="1459" y="-20"/>
    </contour>
    <contour>
      <point x="2491" y="117" type="curve" smooth="yes"/>
      <point x="2385" y="117"/>
      <point x="2354" y="164"/>
      <point x="2354" y="335" type="curve" smooth="yes"/>
      <point x="2354" y="835" type="line" smooth="yes"/>
      <point x="2354" y="1000"/>
      <point x="2386" y="1045"/>
      <point x="2491" y="1045" type="curve" smooth="yes"/>
      <point x="2597" y="1045"/>
      <point x="2628" y="1000"/>
      <point x="2628" y="835" type="curve" smooth="yes"/>
      <point x="2628" y="335" type="line" smooth="yes"/>
      <point x="2628" y="164"/>
      <point x="2597" y="117"/>
    </contour>
    <contour>
      <point x="2491" y="-20" type="curve" smooth="yes"/>
      <point x="2715" y="-20"/>
      <point x="2775" y="71"/>
      <point x="2775" y="411" type="curve" smooth="yes"/>
      <point x="2775" y="763" type="line" smooth="yes"/>
      <point x="2775" y="1090"/>
      <point x="2713" y="1181"/>
      <point x="2491" y="1181" type="curve" smooth="yes"/>
      <point x="2269" y="1181"/>
      <point x="2207" y="1090"/>
      <point x="2207" y="763" type="curve" smooth="yes"/>
      <point x="2207" y="411" type="line" smooth="yes"/>
      <point x="2207" y="71"/>
      <point x="2267" y="-20"/>
    </contour>
    <contour>
      <point x="617" y="0" type="line"/>
      <point x="765" y="0" type="line"/>
      <point x="1487" y="1760" type="line"/>
      <point x="1347" y="1760" type="line"/>
    </contour>
  </outline>
</glyph>
<glyph name="guilsinglleft" format="1">
  <advance width="606"/>
  <unicode hex="2039"/>
  <outline>
    <contour>
      <point x="548" y="414" type="line"/>
      <point x="548" y="574" type="line"/>
      <point x="236" y="749" type="line"/>
      <point x="548" y="915" type="line"/>
      <point x="548" y="1065" type="line"/>
      <point x="82" y="794" type="line"/>
      <point x="82" y="699" type="line"/>
    </contour>
  </outline>
</glyph>
<glyph name="guilsinglright" format="1">
  <advance width="727"/>
  <unicode hex="203A"/>
  <outline>
    <contour>
      <point x="166" y="414" type="line"/>
      <point x="632" y="699" type="line"/>
      <point x="632" y="794" type="line"/>
      <point x="166" y="1065" type="line"/>
      <point x="166" y="915" type="line"/>
      <point x="478" y="749" type="line"/>
      <point x="166" y="574" type="line"/>
    </contour>
  </outline>
</glyph>
<glyph name="Euro" format="1">
  <advance width="830"/>
  <unicode hex="20AC"/>
  <outline>
    <contour>
      <point x="10" y="751" type="line"/>
      <point x="437" y="751" type="line"/>
      <point x="437" y="849" type="line"/>
      <point x="213" y="849" type="line"/>
      <point x="213" y="986" type="line"/>
      <point x="437" y="986" type="line"/>
      <point x="437" y="1076" type="line"/>
      <point x="10" y="1076" type="line"/>
      <point x="10" y="986" type="line"/>
      <point x="143" y="986" type="line"/>
      <point x="143" y="849" type="line"/>
      <point x="10" y="849" type="line"/>
    </contour>
    <component base="C" xOffset="-38"/>
  </outline>
</glyph>
<glyph name="partialdiff" format="1">
  <advance width="961"/>
  <unicode hex="2202"/>
  <outline>
    <contour>
      <point x="421" y="-17" type="curve" smooth="yes"/>
      <point x="581" y="-17"/>
      <point x="746" y="120"/>
      <point x="783" y="417" type="curve" smooth="yes"/>
      <point x="847" y="925" type="line" smooth="yes"/>
      <point x="861" y="1039"/>
      <point x="869" y="1139"/>
      <point x="869" y="1227" type="curve" smooth="yes"/>
      <point x="869" y="1525"/>
      <point x="778" y="1673"/>
      <point x="542" y="1673" type="curve" smooth="yes"/>
      <point x="451" y="1673"/>
      <point x="339" y="1651"/>
      <point x="201" y="1607" type="curve"/>
      <point x="225" y="1485" type="line"/>
      <point x="345" y="1527"/>
      <point x="437" y="1546"/>
      <point x="507" y="1546" type="curve" smooth="yes"/>
      <point x="684" y="1546"/>
      <point x="721" y="1426"/>
      <point x="721" y="1264" type="curve" smooth="yes"/>
      <point x="721" y="1197"/>
      <point x="715" y="1123"/>
      <point x="709" y="1047" type="curve"/>
      <point x="625" y="1079"/>
      <point x="581" y="1093"/>
      <point x="517" y="1093" type="curve" smooth="yes"/>
      <point x="246" y="1093"/>
      <point x="82" y="749"/>
      <point x="82" y="444" type="curve" smooth="yes"/>
      <point x="82" y="201"/>
      <point x="186" y="-17"/>
    </contour>
    <contour>
      <point x="413" y="117" type="curve" smooth="yes"/>
      <point x="300" y="117"/>
      <point x="247" y="264"/>
      <point x="247" y="435" type="curve" smooth="yes"/>
      <point x="247" y="674"/>
      <point x="350" y="960"/>
      <point x="531" y="960" type="curve" smooth="yes"/>
      <point x="582" y="960"/>
      <point x="615" y="947"/>
      <point x="687" y="919" type="curve"/>
      <point x="626" y="419" type="line" smooth="yes"/>
      <point x="601" y="217"/>
      <point x="503" y="117"/>
    </contour>
  </outline>
</glyph>
<glyph name="uni2215" format="1">
  <advance width="767"/>
  <unicode hex="2215"/>
  <outline>
    <contour>
      <point x="94" y="0" type="line"/>
      <point x="231" y="0" type="line"/>
      <point x="673" y="1783" type="line"/>
      <point x="536" y="1783" type="line"/>
    </contour>
  </outline>
</glyph>
<glyph name="radical" format="1">
  <advance width="1152"/>
  <unicode hex="221A"/>
  <outline>
    <contour>
      <point x="349" y="0" type="line"/>
      <point x="503" y="0" type="line"/>
      <point x="777" y="1367" type="line"/>
      <point x="1091" y="1367" type="line"/>
      <point x="1091" y="1500" type="line"/>
      <point x="638" y="1500" type="line"/>
      <point x="411" y="218" type="line"/>
      <point x="197" y="741" type="line"/>
      <point x="58" y="741" type="line"/>
    </contour>
  </outline>
</glyph>
<glyph name="infinity" format="1">
  <advance width="1300"/>
  <unicode hex="221E"/>
  <outline>
    <contour>
      <point x="912" y="439" type="curve" smooth="yes"/>
      <point x="1086" y="439"/>
      <point x="1202" y="561"/>
      <point x="1202" y="744" type="curve" smooth="yes"/>
      <point x="1202" y="922"/>
      <point x="1086" y="1041"/>
      <point x="912" y="1041" type="curve" smooth="yes"/>
      <point x="838" y="1041"/>
      <point x="729" y="967"/>
      <point x="639" y="855" type="curve"/>
      <point x="546" y="959"/>
      <point x="439" y="1028"/>
      <point x="370" y="1028" type="curve" smooth="yes"/>
      <point x="201" y="1028"/>
      <point x="88" y="914"/>
      <point x="88" y="744" type="curve" smooth="yes"/>
      <point x="88" y="569"/>
      <point x="201" y="452"/>
      <point x="370" y="452" type="curve" smooth="yes"/>
      <point x="445" y="452"/>
      <point x="552" y="517"/>
      <point x="639" y="615" type="curve"/>
      <point x="722" y="509"/>
      <point x="831" y="439"/>
    </contour>
    <contour>
      <point x="374" y="578" type="curve" smooth="yes"/>
      <point x="280" y="578"/>
      <point x="218" y="643"/>
      <point x="218" y="740" type="curve" smooth="yes"/>
      <point x="218" y="837"/>
      <point x="280" y="901"/>
      <point x="374" y="901" type="curve" smooth="yes"/>
      <point x="442" y="901"/>
      <point x="527" y="837"/>
      <point x="588" y="740" type="curve"/>
      <point x="526" y="643"/>
      <point x="440" y="578"/>
    </contour>
    <contour>
      <point x="910" y="578" type="curve" smooth="yes"/>
      <point x="835" y="578"/>
      <point x="744" y="643"/>
      <point x="683" y="740" type="curve"/>
      <point x="750" y="837"/>
      <point x="841" y="902"/>
      <point x="910" y="902" type="curve" smooth="yes"/>
      <point x="1008" y="902"/>
      <point x="1074" y="837"/>
      <point x="1074" y="740" type="curve" smooth="yes"/>
      <point x="1074" y="643"/>
      <point x="1008" y="578"/>
    </contour>
  </outline>
</glyph>
<glyph name="approxequal" format="1">
  <advance width="1117"/>
  <unicode hex="2248"/>
  <outline>
    <contour>
      <point x="260" y="500" type="line"/>
      <point x="286" y="560"/>
      <point x="320" y="593"/>
      <point x="355" y="593" type="curve" smooth="yes"/>
      <point x="461" y="593"/>
      <point x="659" y="513"/>
      <point x="773" y="513" type="curve" smooth="yes"/>
      <point x="871" y="513"/>
      <point x="942" y="531"/>
      <point x="989" y="718" type="curve"/>
      <point x="846" y="760" type="line"/>
      <point x="825" y="689"/>
      <point x="792" y="647"/>
      <point x="746" y="642" type="curve"/>
      <point x="682" y="642"/>
      <point x="450" y="721"/>
      <point x="346" y="721" type="curve" smooth="yes"/>
      <point x="258" y="721"/>
      <point x="184" y="658"/>
      <point x="132" y="535" type="curve"/>
    </contour>
    <contour>
      <point x="260" y="902" type="line"/>
      <point x="286" y="962"/>
      <point x="320" y="995"/>
      <point x="355" y="995" type="curve" smooth="yes"/>
      <point x="461" y="995"/>
      <point x="659" y="915"/>
      <point x="773" y="915" type="curve" smooth="yes"/>
      <point x="871" y="915"/>
      <point x="942" y="933"/>
      <point x="989" y="1120" type="curve"/>
      <point x="846" y="1162" type="line"/>
      <point x="825" y="1092"/>
      <point x="792" y="1050"/>
      <point x="746" y="1044" type="curve"/>
      <point x="682" y="1044"/>
      <point x="450" y="1123"/>
      <point x="346" y="1123" type="curve" smooth="yes"/>
      <point x="258" y="1123"/>
      <point x="184" y="1061"/>
      <point x="132" y="937" type="curve"/>
    </contour>
  </outline>
</glyph>
<glyph name="uniFB01" format="1">
  <advance width="1084"/>
  <unicode hex="FB01"/>
  <outline>
    <contour>
      <point x="224" y="0" type="line"/>
      <point x="374" y="0" type="line"/>
      <point x="374" y="1388" type="line"/>
      <point x="772" y="1388" type="line"/>
      <point x="772" y="0" type="line"/>
      <point x="922" y="0" type="line"/>
      <point x="922" y="1500" type="line"/>
      <point x="374" y="1500" type="line"/>
      <point x="374" y="1540" type="line" smooth="yes"/>
      <point x="374" y="1612"/>
      <point x="381" y="1663"/>
      <point x="492" y="1663" type="curve" smooth="yes"/>
      <point x="514" y="1663"/>
      <point x="541" y="1661"/>
      <point x="573" y="1656" type="curve"/>
      <point x="573" y="1777" type="line"/>
      <point x="570" y="1778"/>
      <point x="510" y="1795"/>
      <point x="438" y="1795" type="curve" smooth="yes"/>
      <point x="277" y="1795"/>
      <point x="224" y="1694"/>
      <point x="224" y="1518" type="curve" smooth="yes"/>
      <point x="224" y="1500" type="line"/>
      <point x="84" y="1500" type="line"/>
      <point x="84" y="1388" type="line"/>
      <point x="224" y="1388" type="line"/>
    </contour>
    <contour>
      <point x="772" y="1615" type="line"/>
      <point x="922" y="1615" type="line"/>
      <point x="922" y="1800" type="line"/>
      <point x="772" y="1800" type="line"/>
    </contour>
  </outline>
</glyph>
<glyph name=".notdef" format="1">
  <advance width="1152"/>
  <outline>
    <contour>
      <point x="248" y="72" type="line"/>
      <point x="248" y="1688" type="line"/>
      <point x="904" y="1688" type="line"/>
      <point x="904" y="72" type="line"/>
    </contour>
    <contour>
      <point x="166" y="0" type="line"/>
      <point x="986" y="0" type="line"/>
      <point x="986" y="1760" type="line"/>
      <point x="166" y="1760" type="line"/>
    </contour>
    <component base="N" xScale="0.58223" yScale="0.716243" xOffset="291" yOffset="240"/>
  </outline>
</glyph>
